<mxfile host="Electron" modified="2024-05-09T09:58:57.480Z" agent="Mozilla/5.0 (Windows NT 10.0; Win64; x64) AppleWebKit/537.36 (KHTML, like Gecko) draw.io/21.4.0 Chrome/112.0.5615.204 Electron/24.5.1 Safari/537.36" etag="8600c2mhlcRIcQQegC8m" version="21.4.0" type="device" pages="11">
  <diagram name="api-server-class" id="kc9x2lo6H-75C2MYU1yd">
    <mxGraphModel dx="1548" dy="902" grid="1" gridSize="10" guides="1" tooltips="1" connect="1" arrows="1" fold="1" page="1" pageScale="1" pageWidth="827" pageHeight="1169" math="0" shadow="0">
      <root>
        <mxCell id="0" />
        <mxCell id="1" parent="0" />
        <mxCell id="JHcO2tIwE3XTsrZ-1QhT-1" value="RESTStorageProvider" style="swimlane;fontStyle=1;align=center;verticalAlign=top;childLayout=stackLayout;horizontal=1;startSize=26;horizontalStack=0;resizeParent=1;resizeParentMax=0;resizeLast=0;collapsible=1;marginBottom=0;whiteSpace=wrap;html=1;sketch=1;hachureGap=4;jiggle=2;curveFitting=1;fontFamily=Architects Daughter;fontSource=https%3A%2F%2Ffonts.googleapis.com%2Fcss%3Ffamily%3DArchitects%2BDaughter;fontSize=20;" parent="1" vertex="1">
          <mxGeometry x="220" y="585" width="360" height="80" as="geometry" />
        </mxCell>
        <mxCell id="JHcO2tIwE3XTsrZ-1QhT-3" value="" style="line;strokeWidth=1;fillColor=none;align=left;verticalAlign=middle;spacingTop=-1;spacingLeft=3;spacingRight=3;rotatable=0;labelPosition=right;points=[];portConstraint=eastwest;strokeColor=inherit;sketch=1;hachureGap=4;jiggle=2;curveFitting=1;fontFamily=Architects Daughter;fontSource=https%3A%2F%2Ffonts.googleapis.com%2Fcss%3Ffamily%3DArchitects%2BDaughter;fontSize=20;" parent="JHcO2tIwE3XTsrZ-1QhT-1" vertex="1">
          <mxGeometry y="26" width="360" height="8" as="geometry" />
        </mxCell>
        <mxCell id="JHcO2tIwE3XTsrZ-1QhT-4" value="+ NewRESTStorage(type): type" style="text;strokeColor=none;fillColor=none;align=left;verticalAlign=top;spacingLeft=4;spacingRight=4;overflow=hidden;rotatable=0;points=[[0,0.5],[1,0.5]];portConstraint=eastwest;whiteSpace=wrap;html=1;fontSize=20;fontFamily=Architects Daughter;" parent="JHcO2tIwE3XTsrZ-1QhT-1" vertex="1">
          <mxGeometry y="34" width="360" height="46" as="geometry" />
        </mxCell>
        <mxCell id="JHcO2tIwE3XTsrZ-1QhT-5" value="CompletedConfig" style="swimlane;fontStyle=1;align=center;verticalAlign=top;childLayout=stackLayout;horizontal=1;startSize=26;horizontalStack=0;resizeParent=1;resizeParentMax=0;resizeLast=0;collapsible=1;marginBottom=0;whiteSpace=wrap;html=1;sketch=1;hachureGap=4;jiggle=2;curveFitting=1;fontFamily=Architects Daughter;fontSource=https%3A%2F%2Ffonts.googleapis.com%2Fcss%3Ffamily%3DArchitects%2BDaughter;fontSize=20;" parent="1" vertex="1">
          <mxGeometry x="210" y="280" width="780" height="164" as="geometry" />
        </mxCell>
        <mxCell id="JHcO2tIwE3XTsrZ-1QhT-6" value="&lt;div&gt;+ Aggregator:&amp;nbsp; &amp;nbsp; aggregatorapiserver.CompletedConfig&lt;/div&gt;&lt;div&gt;+ ControlPlane:&amp;nbsp; controlplane.CompletedConfig&lt;/div&gt;&lt;div&gt;+ ApiExtensions: apiextensionsapiserver.CompletedConfig&lt;/div&gt;" style="text;strokeColor=none;fillColor=none;align=left;verticalAlign=top;spacingLeft=4;spacingRight=4;overflow=hidden;rotatable=0;points=[[0,0.5],[1,0.5]];portConstraint=eastwest;whiteSpace=wrap;html=1;fontSize=20;fontFamily=Architects Daughter;" parent="JHcO2tIwE3XTsrZ-1QhT-5" vertex="1">
          <mxGeometry y="26" width="780" height="104" as="geometry" />
        </mxCell>
        <mxCell id="JHcO2tIwE3XTsrZ-1QhT-7" value="" style="line;strokeWidth=1;fillColor=none;align=left;verticalAlign=middle;spacingTop=-1;spacingLeft=3;spacingRight=3;rotatable=0;labelPosition=right;points=[];portConstraint=eastwest;strokeColor=inherit;sketch=1;hachureGap=4;jiggle=2;curveFitting=1;fontFamily=Architects Daughter;fontSource=https%3A%2F%2Ffonts.googleapis.com%2Fcss%3Ffamily%3DArchitects%2BDaughter;fontSize=20;" parent="JHcO2tIwE3XTsrZ-1QhT-5" vertex="1">
          <mxGeometry y="130" width="780" height="8" as="geometry" />
        </mxCell>
        <mxCell id="JHcO2tIwE3XTsrZ-1QhT-8" value="+ method(type): type" style="text;strokeColor=none;fillColor=none;align=left;verticalAlign=top;spacingLeft=4;spacingRight=4;overflow=hidden;rotatable=0;points=[[0,0.5],[1,0.5]];portConstraint=eastwest;whiteSpace=wrap;html=1;fontSize=20;fontFamily=Architects Daughter;" parent="JHcO2tIwE3XTsrZ-1QhT-5" vertex="1">
          <mxGeometry y="138" width="780" height="26" as="geometry" />
        </mxCell>
        <mxCell id="JHcO2tIwE3XTsrZ-1QhT-9" value="app.Config" style="swimlane;fontStyle=1;align=center;verticalAlign=top;childLayout=stackLayout;horizontal=1;startSize=26;horizontalStack=0;resizeParent=1;resizeParentMax=0;resizeLast=0;collapsible=1;marginBottom=0;whiteSpace=wrap;html=1;sketch=1;hachureGap=4;jiggle=2;curveFitting=1;fontFamily=Architects Daughter;fontSource=https%3A%2F%2Ffonts.googleapis.com%2Fcss%3Ffamily%3DArchitects%2BDaughter;fontSize=20;" parent="1" vertex="1">
          <mxGeometry x="370" y="20" width="540" height="144" as="geometry" />
        </mxCell>
        <mxCell id="JHcO2tIwE3XTsrZ-1QhT-10" value="&lt;div&gt;+ Aggregator:&amp;nbsp; &amp;nbsp; *aggregatorapiserver.Config&lt;/div&gt;&lt;div&gt;+ ControlPlane:&amp;nbsp; *controlplane.Config&lt;/div&gt;&lt;div&gt;+ ApiExtensions: *apiextensionsapiserver.Config&lt;/div&gt;" style="text;strokeColor=none;fillColor=none;align=left;verticalAlign=top;spacingLeft=4;spacingRight=4;overflow=hidden;rotatable=0;points=[[0,0.5],[1,0.5]];portConstraint=eastwest;whiteSpace=wrap;html=1;fontSize=20;fontFamily=Architects Daughter;" parent="JHcO2tIwE3XTsrZ-1QhT-9" vertex="1">
          <mxGeometry y="26" width="540" height="84" as="geometry" />
        </mxCell>
        <mxCell id="JHcO2tIwE3XTsrZ-1QhT-11" value="" style="line;strokeWidth=1;fillColor=none;align=left;verticalAlign=middle;spacingTop=-1;spacingLeft=3;spacingRight=3;rotatable=0;labelPosition=right;points=[];portConstraint=eastwest;strokeColor=inherit;sketch=1;hachureGap=4;jiggle=2;curveFitting=1;fontFamily=Architects Daughter;fontSource=https%3A%2F%2Ffonts.googleapis.com%2Fcss%3Ffamily%3DArchitects%2BDaughter;fontSize=20;" parent="JHcO2tIwE3XTsrZ-1QhT-9" vertex="1">
          <mxGeometry y="110" width="540" height="8" as="geometry" />
        </mxCell>
        <mxCell id="JHcO2tIwE3XTsrZ-1QhT-12" value="+ method(type): type" style="text;strokeColor=none;fillColor=none;align=left;verticalAlign=top;spacingLeft=4;spacingRight=4;overflow=hidden;rotatable=0;points=[[0,0.5],[1,0.5]];portConstraint=eastwest;whiteSpace=wrap;html=1;fontSize=20;fontFamily=Architects Daughter;" parent="JHcO2tIwE3XTsrZ-1QhT-9" vertex="1">
          <mxGeometry y="118" width="540" height="26" as="geometry" />
        </mxCell>
      </root>
    </mxGraphModel>
  </diagram>
  <diagram id="30iA2SozCSW8acdaCS1l" name="第 2 页">
    <mxGraphModel dx="1548" dy="902" grid="1" gridSize="10" guides="1" tooltips="1" connect="1" arrows="1" fold="1" page="1" pageScale="1" pageWidth="827" pageHeight="1169" math="0" shadow="0">
      <root>
        <mxCell id="0" />
        <mxCell id="1" parent="0" />
        <mxCell id="3yHrZYNNl7kTUIvjRW0V-1" value="CreateServerChain(Config)" style="rounded=0;whiteSpace=wrap;html=1;sketch=1;hachureGap=4;jiggle=2;curveFitting=1;fontFamily=Architects Daughter;fontSource=https%3A%2F%2Ffonts.googleapis.com%2Fcss%3Ffamily%3DArchitects%2BDaughter;fontSize=20;" parent="1" vertex="1">
          <mxGeometry x="334" y="250" width="276" height="50" as="geometry" />
        </mxCell>
        <mxCell id="3yHrZYNNl7kTUIvjRW0V-5" value="" style="edgeStyle=orthogonalEdgeStyle;rounded=0;sketch=1;hachureGap=4;jiggle=2;curveFitting=1;orthogonalLoop=1;jettySize=auto;html=1;fontFamily=Architects Daughter;fontSource=https%3A%2F%2Ffonts.googleapis.com%2Fcss%3Ffamily%3DArchitects%2BDaughter;fontSize=16;" parent="1" source="3yHrZYNNl7kTUIvjRW0V-2" target="3yHrZYNNl7kTUIvjRW0V-4" edge="1">
          <mxGeometry relative="1" as="geometry" />
        </mxCell>
        <mxCell id="3yHrZYNNl7kTUIvjRW0V-2" value="APIAggregator" style="rounded=0;whiteSpace=wrap;html=1;sketch=1;hachureGap=4;jiggle=2;curveFitting=1;fontFamily=Architects Daughter;fontSource=https%3A%2F%2Ffonts.googleapis.com%2Fcss%3Ffamily%3DArchitects%2BDaughter;fontSize=20;" parent="1" vertex="1">
          <mxGeometry x="354" y="520" width="236" height="50" as="geometry" />
        </mxCell>
        <mxCell id="3yHrZYNNl7kTUIvjRW0V-7" value="" style="edgeStyle=orthogonalEdgeStyle;rounded=0;sketch=1;hachureGap=4;jiggle=2;curveFitting=1;orthogonalLoop=1;jettySize=auto;html=1;fontFamily=Architects Daughter;fontSource=https%3A%2F%2Ffonts.googleapis.com%2Fcss%3Ffamily%3DArchitects%2BDaughter;fontSize=16;" parent="1" source="3yHrZYNNl7kTUIvjRW0V-4" target="3yHrZYNNl7kTUIvjRW0V-6" edge="1">
          <mxGeometry relative="1" as="geometry" />
        </mxCell>
        <mxCell id="3yHrZYNNl7kTUIvjRW0V-4" value="APIAggregator.PrepareRun()" style="rounded=0;whiteSpace=wrap;html=1;sketch=1;hachureGap=4;jiggle=2;curveFitting=1;fontFamily=Architects Daughter;fontSource=https%3A%2F%2Ffonts.googleapis.com%2Fcss%3Ffamily%3DArchitects%2BDaughter;fontSize=20;" parent="1" vertex="1">
          <mxGeometry x="309" y="650" width="326" height="50" as="geometry" />
        </mxCell>
        <mxCell id="3yHrZYNNl7kTUIvjRW0V-6" value="prepared.Run()" style="rounded=0;whiteSpace=wrap;html=1;sketch=1;hachureGap=4;jiggle=2;curveFitting=1;fontFamily=Architects Daughter;fontSource=https%3A%2F%2Ffonts.googleapis.com%2Fcss%3Ffamily%3DArchitects%2BDaughter;fontSize=20;" parent="1" vertex="1">
          <mxGeometry x="354" y="780" width="236" height="50" as="geometry" />
        </mxCell>
        <mxCell id="3yHrZYNNl7kTUIvjRW0V-8" value="config.ControlPlane.New" style="rounded=0;whiteSpace=wrap;html=1;sketch=1;hachureGap=4;jiggle=2;curveFitting=1;fontFamily=Architects Daughter;fontSource=https%3A%2F%2Ffonts.googleapis.com%2Fcss%3Ffamily%3DArchitects%2BDaughter;fontSize=20;" parent="1" vertex="1">
          <mxGeometry x="50" y="390" width="236" height="50" as="geometry" />
        </mxCell>
      </root>
    </mxGraphModel>
  </diagram>
  <diagram id="HqExZR3HkXK9NHMnQTg3" name="Pod创建流程">
    <mxGraphModel dx="4697" dy="2255" grid="1" gridSize="10" guides="1" tooltips="1" connect="1" arrows="1" fold="1" page="1" pageScale="1" pageWidth="827" pageHeight="1169" math="0" shadow="0">
      <root>
        <mxCell id="0" />
        <mxCell id="1" parent="0" />
        <mxCell id="c_XrIDyz8owDQVlm6JgZ-43" value="" style="rounded=0;whiteSpace=wrap;html=1;fillColor=#ffe6cc;strokeColor=#d79b00;" vertex="1" parent="1">
          <mxGeometry x="810" y="850" width="880" height="160" as="geometry" />
        </mxCell>
        <mxCell id="c_XrIDyz8owDQVlm6JgZ-25" value="" style="rounded=0;whiteSpace=wrap;html=1;hachureGap=4;fontFamily=Architects Daughter;fontSource=https%3A%2F%2Ffonts.googleapis.com%2Fcss%3Ffamily%3DArchitects%2BDaughter;fontSize=20;fillColor=#dae8fc;strokeColor=#6c8ebf;dashed=1;strokeWidth=1.5;" vertex="1" parent="1">
          <mxGeometry x="170" y="690" width="830" height="130" as="geometry" />
        </mxCell>
        <mxCell id="c_XrIDyz8owDQVlm6JgZ-22" value="" style="rounded=0;whiteSpace=wrap;html=1;hachureGap=4;fontFamily=Architects Daughter;fontSource=https%3A%2F%2Ffonts.googleapis.com%2Fcss%3Ffamily%3DArchitects%2BDaughter;fontSize=20;fillColor=#d5e8d4;strokeColor=#82b366;" vertex="1" parent="1">
          <mxGeometry x="-140" y="480" width="810" height="180" as="geometry" />
        </mxCell>
        <mxCell id="c_XrIDyz8owDQVlm6JgZ-19" value="" style="rounded=0;whiteSpace=wrap;html=1;hachureGap=4;fontFamily=Architects Daughter;fontSource=https%3A%2F%2Ffonts.googleapis.com%2Fcss%3Ffamily%3DArchitects%2BDaughter;fontSize=20;fillColor=#dae8fc;strokeColor=#6c8ebf;dashed=1;strokeWidth=1.5;" vertex="1" parent="1">
          <mxGeometry x="170" y="360" width="830" height="80" as="geometry" />
        </mxCell>
        <mxCell id="c_XrIDyz8owDQVlm6JgZ-1" value="api-server" style="shape=umlLifeline;perimeter=lifelinePerimeter;whiteSpace=wrap;html=1;container=1;dropTarget=0;collapsible=0;recursiveResize=0;outlineConnect=0;portConstraint=eastwest;newEdgeStyle={&quot;edgeStyle&quot;:&quot;elbowEdgeStyle&quot;,&quot;elbow&quot;:&quot;vertical&quot;,&quot;curved&quot;:0,&quot;rounded&quot;:0};hachureGap=4;fontFamily=Architects Daughter;fontSource=https%3A%2F%2Ffonts.googleapis.com%2Fcss%3Ffamily%3DArchitects%2BDaughter;fontSize=14;fontStyle=1;fillColor=#e1d5e7;strokeColor=#9673a6;" vertex="1" parent="1">
          <mxGeometry x="200" y="220" width="100" height="810" as="geometry" />
        </mxCell>
        <mxCell id="c_XrIDyz8owDQVlm6JgZ-2" value="ETCD" style="shape=umlLifeline;perimeter=lifelinePerimeter;whiteSpace=wrap;html=1;container=1;dropTarget=0;collapsible=0;recursiveResize=0;outlineConnect=0;portConstraint=eastwest;newEdgeStyle={&quot;edgeStyle&quot;:&quot;elbowEdgeStyle&quot;,&quot;elbow&quot;:&quot;vertical&quot;,&quot;curved&quot;:0,&quot;rounded&quot;:0};hachureGap=4;fontFamily=Architects Daughter;fontSource=https%3A%2F%2Ffonts.googleapis.com%2Fcss%3Ffamily%3DArchitects%2BDaughter;fontSize=14;fontStyle=1;fillColor=#f5f5f5;fontColor=#333333;strokeColor=#666666;" vertex="1" parent="1">
          <mxGeometry x="530" y="220" width="100" height="840" as="geometry" />
        </mxCell>
        <mxCell id="c_XrIDyz8owDQVlm6JgZ-3" value="kubelet" style="shape=umlLifeline;perimeter=lifelinePerimeter;whiteSpace=wrap;html=1;container=1;dropTarget=0;collapsible=0;recursiveResize=0;outlineConnect=0;portConstraint=eastwest;newEdgeStyle={&quot;edgeStyle&quot;:&quot;elbowEdgeStyle&quot;,&quot;elbow&quot;:&quot;vertical&quot;,&quot;curved&quot;:0,&quot;rounded&quot;:0};hachureGap=4;fontFamily=Architects Daughter;fontSource=https%3A%2F%2Ffonts.googleapis.com%2Fcss%3Ffamily%3DArchitects%2BDaughter;fontSize=14;fontStyle=1;fillColor=#ffe6cc;strokeColor=#d79b00;" vertex="1" parent="1">
          <mxGeometry x="860" y="220" width="100" height="850" as="geometry" />
        </mxCell>
        <mxCell id="c_XrIDyz8owDQVlm6JgZ-4" value="client" style="shape=umlLifeline;perimeter=lifelinePerimeter;whiteSpace=wrap;html=1;container=1;dropTarget=0;collapsible=0;recursiveResize=0;outlineConnect=0;portConstraint=eastwest;newEdgeStyle={&quot;edgeStyle&quot;:&quot;elbowEdgeStyle&quot;,&quot;elbow&quot;:&quot;vertical&quot;,&quot;curved&quot;:0,&quot;rounded&quot;:0};hachureGap=4;fontFamily=Architects Daughter;fontSource=https%3A%2F%2Ffonts.googleapis.com%2Fcss%3Ffamily%3DArchitects%2BDaughter;fontSize=14;fontStyle=1;fillColor=#f5f5f5;fontColor=#333333;strokeColor=#666666;" vertex="1" parent="1">
          <mxGeometry x="-130" y="220" width="100" height="820" as="geometry" />
        </mxCell>
        <mxCell id="c_XrIDyz8owDQVlm6JgZ-5" value="" style="endArrow=classic;html=1;rounded=0;hachureGap=4;fontFamily=Architects Daughter;fontSource=https%3A%2F%2Ffonts.googleapis.com%2Fcss%3Ffamily%3DArchitects%2BDaughter;fontSize=14;" edge="1" parent="1">
          <mxGeometry width="50" height="50" relative="1" as="geometry">
            <mxPoint x="-79.5" y="520" as="sourcePoint" />
            <mxPoint x="251" y="520" as="targetPoint" />
          </mxGeometry>
        </mxCell>
        <mxCell id="c_XrIDyz8owDQVlm6JgZ-9" value="rest请求创建Pod" style="edgeLabel;html=1;align=center;verticalAlign=middle;resizable=0;points=[];fontSize=14;fontFamily=Architects Daughter;" vertex="1" connectable="0" parent="c_XrIDyz8owDQVlm6JgZ-5">
          <mxGeometry x="-0.1437" y="-1" relative="1" as="geometry">
            <mxPoint as="offset" />
          </mxGeometry>
        </mxCell>
        <mxCell id="c_XrIDyz8owDQVlm6JgZ-6" value="" style="endArrow=classic;html=1;rounded=0;hachureGap=4;fontFamily=Architects Daughter;fontSource=https%3A%2F%2Ffonts.googleapis.com%2Fcss%3Ffamily%3DArchitects%2BDaughter;fontSize=14;" edge="1" parent="1">
          <mxGeometry width="50" height="50" relative="1" as="geometry">
            <mxPoint x="249" y="620" as="sourcePoint" />
            <mxPoint x="579.5" y="620" as="targetPoint" />
          </mxGeometry>
        </mxCell>
        <mxCell id="c_XrIDyz8owDQVlm6JgZ-12" value="存储Pod信息" style="edgeLabel;html=1;align=center;verticalAlign=middle;resizable=0;points=[];fontSize=14;fontFamily=Architects Daughter;" vertex="1" connectable="0" parent="c_XrIDyz8owDQVlm6JgZ-6">
          <mxGeometry x="-0.2209" relative="1" as="geometry">
            <mxPoint as="offset" />
          </mxGeometry>
        </mxCell>
        <mxCell id="c_XrIDyz8owDQVlm6JgZ-7" value="" style="endArrow=classic;html=1;rounded=0;hachureGap=4;fontFamily=Architects Daughter;fontSource=https%3A%2F%2Ffonts.googleapis.com%2Fcss%3Ffamily%3DArchitects%2BDaughter;fontSize=14;fillColor=#dae8fc;strokeColor=#6c8ebf;" edge="1" parent="1">
          <mxGeometry width="50" height="50" relative="1" as="geometry">
            <mxPoint x="908.75" y="390" as="sourcePoint" />
            <mxPoint x="248.25" y="390" as="targetPoint" />
          </mxGeometry>
        </mxCell>
        <mxCell id="c_XrIDyz8owDQVlm6JgZ-13" value="监听pod的变化，写入到updates 中" style="edgeLabel;html=1;align=center;verticalAlign=middle;resizable=0;points=[];fontSize=14;fontFamily=Architects Daughter;" vertex="1" connectable="0" parent="c_XrIDyz8owDQVlm6JgZ-7">
          <mxGeometry x="-0.2665" relative="1" as="geometry">
            <mxPoint x="62" as="offset" />
          </mxGeometry>
        </mxCell>
        <mxCell id="c_XrIDyz8owDQVlm6JgZ-11" value="" style="endArrow=classic;html=1;rounded=0;hachureGap=4;fontFamily=Architects Daughter;fontSource=https%3A%2F%2Ffonts.googleapis.com%2Fcss%3Ffamily%3DArchitects%2BDaughter;fontSize=14;exitX=0.522;exitY=0.17;exitDx=0;exitDy=0;exitPerimeter=0;entryX=0.482;entryY=0.24;entryDx=0;entryDy=0;entryPerimeter=0;" edge="1" parent="1">
          <mxGeometry width="50" height="50" relative="1" as="geometry">
            <mxPoint x="253.19999999999982" y="538.0999999999999" as="sourcePoint" />
            <mxPoint x="249.19999999999982" y="582.2" as="targetPoint" />
            <Array as="points">
              <mxPoint x="311" y="538" />
              <mxPoint x="311" y="581" />
            </Array>
          </mxGeometry>
        </mxCell>
        <mxCell id="c_XrIDyz8owDQVlm6JgZ-16" value="&lt;font style=&quot;font-size: 14px;&quot;&gt;内存中创建Pod资源信息（Store.Create）&lt;/font&gt;" style="edgeLabel;html=1;align=center;verticalAlign=middle;resizable=0;points=[];fontSize=20;fontFamily=Architects Daughter;" vertex="1" connectable="0" parent="c_XrIDyz8owDQVlm6JgZ-11">
          <mxGeometry x="0.0946" y="-4" relative="1" as="geometry">
            <mxPoint y="-9" as="offset" />
          </mxGeometry>
        </mxCell>
        <mxCell id="c_XrIDyz8owDQVlm6JgZ-14" value="" style="endArrow=classic;html=1;rounded=0;hachureGap=4;fontFamily=Architects Daughter;fontSource=https%3A%2F%2Ffonts.googleapis.com%2Fcss%3Ffamily%3DArchitects%2BDaughter;fontSize=14;exitX=0.522;exitY=0.17;exitDx=0;exitDy=0;exitPerimeter=0;entryX=0.482;entryY=0.24;entryDx=0;entryDy=0;entryPerimeter=0;fillColor=#d5e8d4;strokeColor=#82b366;" edge="1" parent="1">
          <mxGeometry width="50" height="50" relative="1" as="geometry">
            <mxPoint x="252.19999999999982" y="270.0999999999999" as="sourcePoint" />
            <mxPoint x="248.19999999999982" y="314.20000000000005" as="targetPoint" />
            <Array as="points">
              <mxPoint x="310" y="270" />
              <mxPoint x="310" y="313" />
            </Array>
          </mxGeometry>
        </mxCell>
        <mxCell id="c_XrIDyz8owDQVlm6JgZ-15" value="初始化后端ETCD存储&lt;br style=&quot;font-size: 14px;&quot;&gt;并且Install所有资源的HTTP rest请求路径" style="edgeLabel;html=1;align=center;verticalAlign=middle;resizable=0;points=[];fontSize=14;fontFamily=Architects Daughter;" vertex="1" connectable="0" parent="c_XrIDyz8owDQVlm6JgZ-14">
          <mxGeometry x="-0.176" y="3" relative="1" as="geometry">
            <mxPoint x="-3" y="11" as="offset" />
          </mxGeometry>
        </mxCell>
        <mxCell id="c_XrIDyz8owDQVlm6JgZ-17" value="" style="endArrow=classic;html=1;rounded=0;hachureGap=4;fontFamily=Architects Daughter;fontSource=https%3A%2F%2Ffonts.googleapis.com%2Fcss%3Ffamily%3DArchitects%2BDaughter;fontSize=14;fillColor=#dae8fc;strokeColor=#6c8ebf;" edge="1" parent="1">
          <mxGeometry width="50" height="50" relative="1" as="geometry">
            <mxPoint x="246.75" y="410" as="sourcePoint" />
            <mxPoint x="577.25" y="410" as="targetPoint" />
          </mxGeometry>
        </mxCell>
        <mxCell id="c_XrIDyz8owDQVlm6JgZ-18" value="Watch Pod信息" style="edgeLabel;html=1;align=center;verticalAlign=middle;resizable=0;points=[];fontSize=14;fontFamily=Architects Daughter;" vertex="1" connectable="0" parent="c_XrIDyz8owDQVlm6JgZ-17">
          <mxGeometry x="-0.2209" relative="1" as="geometry">
            <mxPoint as="offset" />
          </mxGeometry>
        </mxCell>
        <mxCell id="c_XrIDyz8owDQVlm6JgZ-20" value="" style="endArrow=classic;html=1;rounded=0;hachureGap=4;fontFamily=Architects Daughter;fontSource=https%3A%2F%2Ffonts.googleapis.com%2Fcss%3Ffamily%3DArchitects%2BDaughter;fontSize=14;" edge="1" parent="1">
          <mxGeometry width="50" height="50" relative="1" as="geometry">
            <mxPoint x="250.13" y="770" as="sourcePoint" />
            <mxPoint x="911.13" y="770" as="targetPoint" />
          </mxGeometry>
        </mxCell>
        <mxCell id="c_XrIDyz8owDQVlm6JgZ-21" value="变更的Pod信息写入到监听的updates" style="edgeLabel;html=1;align=center;verticalAlign=middle;resizable=0;points=[];fontSize=14;fontFamily=Architects Daughter;" vertex="1" connectable="0" parent="c_XrIDyz8owDQVlm6JgZ-20">
          <mxGeometry x="-0.2209" relative="1" as="geometry">
            <mxPoint as="offset" />
          </mxGeometry>
        </mxCell>
        <mxCell id="c_XrIDyz8owDQVlm6JgZ-23" value="" style="endArrow=classic;html=1;rounded=0;hachureGap=4;fontFamily=Architects Daughter;fontSource=https%3A%2F%2Ffonts.googleapis.com%2Fcss%3Ffamily%3DArchitects%2BDaughter;fontSize=14;" edge="1" parent="1">
          <mxGeometry width="50" height="50" relative="1" as="geometry">
            <mxPoint x="579.38" y="720" as="sourcePoint" />
            <mxPoint x="248.88" y="720" as="targetPoint" />
          </mxGeometry>
        </mxCell>
        <mxCell id="c_XrIDyz8owDQVlm6JgZ-24" value="变更的信息通过 Watch 机制推送给api-server" style="edgeLabel;html=1;align=center;verticalAlign=middle;resizable=0;points=[];fontSize=14;fontFamily=Architects Daughter;" vertex="1" connectable="0" parent="c_XrIDyz8owDQVlm6JgZ-23">
          <mxGeometry x="-0.2209" relative="1" as="geometry">
            <mxPoint x="-30" as="offset" />
          </mxGeometry>
        </mxCell>
        <mxCell id="c_XrIDyz8owDQVlm6JgZ-31" value="CRI" style="shape=umlLifeline;perimeter=lifelinePerimeter;whiteSpace=wrap;html=1;container=1;dropTarget=0;collapsible=0;recursiveResize=0;outlineConnect=0;portConstraint=eastwest;newEdgeStyle={&quot;edgeStyle&quot;:&quot;elbowEdgeStyle&quot;,&quot;elbow&quot;:&quot;vertical&quot;,&quot;curved&quot;:0,&quot;rounded&quot;:0};hachureGap=4;fontFamily=Architects Daughter;fontSource=https%3A%2F%2Ffonts.googleapis.com%2Fcss%3Ffamily%3DArchitects%2BDaughter;fontSize=14;fontStyle=1;fillColor=#f8cecc;strokeColor=#b85450;" vertex="1" parent="1">
          <mxGeometry x="1190.5" y="220" width="100" height="850" as="geometry" />
        </mxCell>
        <mxCell id="c_XrIDyz8owDQVlm6JgZ-32" value="" style="endArrow=classic;html=1;rounded=0;hachureGap=4;fontFamily=Architects Daughter;fontSource=https%3A%2F%2Ffonts.googleapis.com%2Fcss%3Ffamily%3DArchitects%2BDaughter;fontSize=14;" edge="1" parent="1">
          <mxGeometry width="50" height="50" relative="1" as="geometry">
            <mxPoint x="910" y="880" as="sourcePoint" />
            <mxPoint x="1240.5" y="880" as="targetPoint" />
          </mxGeometry>
        </mxCell>
        <mxCell id="c_XrIDyz8owDQVlm6JgZ-33" value="创建Pod资源和沙箱" style="edgeLabel;html=1;align=center;verticalAlign=middle;resizable=0;points=[];fontSize=14;fontFamily=Architects Daughter;" vertex="1" connectable="0" parent="c_XrIDyz8owDQVlm6JgZ-32">
          <mxGeometry x="-0.2209" relative="1" as="geometry">
            <mxPoint as="offset" />
          </mxGeometry>
        </mxCell>
        <mxCell id="c_XrIDyz8owDQVlm6JgZ-34" value="CNI" style="shape=umlLifeline;perimeter=lifelinePerimeter;whiteSpace=wrap;html=1;container=1;dropTarget=0;collapsible=0;recursiveResize=0;outlineConnect=0;portConstraint=eastwest;newEdgeStyle={&quot;edgeStyle&quot;:&quot;elbowEdgeStyle&quot;,&quot;elbow&quot;:&quot;vertical&quot;,&quot;curved&quot;:0,&quot;rounded&quot;:0};hachureGap=4;fontFamily=Architects Daughter;fontSource=https%3A%2F%2Ffonts.googleapis.com%2Fcss%3Ffamily%3DArchitects%2BDaughter;fontSize=14;fontStyle=1;fillColor=#f8cecc;strokeColor=#b85450;" vertex="1" parent="1">
          <mxGeometry x="1520" y="220" width="100" height="850" as="geometry" />
        </mxCell>
        <mxCell id="c_XrIDyz8owDQVlm6JgZ-36" value="" style="endArrow=classic;html=1;rounded=0;hachureGap=4;fontFamily=Architects Daughter;fontSource=https%3A%2F%2Ffonts.googleapis.com%2Fcss%3Ffamily%3DArchitects%2BDaughter;fontSize=14;" edge="1" parent="1">
          <mxGeometry width="50" height="50" relative="1" as="geometry">
            <mxPoint x="1241" y="910" as="sourcePoint" />
            <mxPoint x="1571.5" y="910" as="targetPoint" />
          </mxGeometry>
        </mxCell>
        <mxCell id="c_XrIDyz8owDQVlm6JgZ-37" value="设置Pod网络" style="edgeLabel;html=1;align=center;verticalAlign=middle;resizable=0;points=[];fontSize=14;fontFamily=Architects Daughter;" vertex="1" connectable="0" parent="c_XrIDyz8owDQVlm6JgZ-36">
          <mxGeometry x="-0.2209" relative="1" as="geometry">
            <mxPoint as="offset" />
          </mxGeometry>
        </mxCell>
        <mxCell id="c_XrIDyz8owDQVlm6JgZ-38" value="" style="endArrow=classic;html=1;rounded=0;hachureGap=4;fontFamily=Architects Daughter;fontSource=https%3A%2F%2Ffonts.googleapis.com%2Fcss%3Ffamily%3DArchitects%2BDaughter;fontSize=14;" edge="1" parent="1">
          <mxGeometry width="50" height="50" relative="1" as="geometry">
            <mxPoint x="1571.5" y="940" as="sourcePoint" />
            <mxPoint x="1241" y="940" as="targetPoint" />
          </mxGeometry>
        </mxCell>
        <mxCell id="c_XrIDyz8owDQVlm6JgZ-39" value="返回设置结果" style="edgeLabel;html=1;align=center;verticalAlign=middle;resizable=0;points=[];fontSize=14;fontFamily=Architects Daughter;" vertex="1" connectable="0" parent="c_XrIDyz8owDQVlm6JgZ-38">
          <mxGeometry x="-0.2209" relative="1" as="geometry">
            <mxPoint x="-72" as="offset" />
          </mxGeometry>
        </mxCell>
        <mxCell id="c_XrIDyz8owDQVlm6JgZ-40" value="" style="endArrow=classic;html=1;rounded=0;hachureGap=4;fontFamily=Architects Daughter;fontSource=https%3A%2F%2Ffonts.googleapis.com%2Fcss%3Ffamily%3DArchitects%2BDaughter;fontSize=14;" edge="1" parent="1">
          <mxGeometry width="50" height="50" relative="1" as="geometry">
            <mxPoint x="1240.5" y="980" as="sourcePoint" />
            <mxPoint x="910" y="980" as="targetPoint" />
          </mxGeometry>
        </mxCell>
        <mxCell id="c_XrIDyz8owDQVlm6JgZ-41" value="返回创建结果" style="edgeLabel;html=1;align=center;verticalAlign=middle;resizable=0;points=[];fontSize=14;fontFamily=Architects Daughter;" vertex="1" connectable="0" parent="c_XrIDyz8owDQVlm6JgZ-40">
          <mxGeometry x="-0.2209" relative="1" as="geometry">
            <mxPoint x="-72" as="offset" />
          </mxGeometry>
        </mxCell>
        <mxCell id="c_XrIDyz8owDQVlm6JgZ-46" value="&lt;b&gt;&lt;font style=&quot;font-size: 18px;&quot;&gt;初始化监听&lt;/font&gt;&lt;/b&gt;" style="text;html=1;strokeColor=none;fillColor=none;align=center;verticalAlign=middle;whiteSpace=wrap;rounded=0;" vertex="1" parent="1">
          <mxGeometry x="50" y="390" width="110" height="30" as="geometry" />
        </mxCell>
        <mxCell id="c_XrIDyz8owDQVlm6JgZ-47" value="&lt;b&gt;&lt;font style=&quot;font-size: 18px;&quot;&gt;客户端请求&lt;/font&gt;&lt;/b&gt;" style="text;html=1;strokeColor=none;fillColor=none;align=center;verticalAlign=middle;whiteSpace=wrap;rounded=0;" vertex="1" parent="1">
          <mxGeometry x="-260" y="560" width="110" height="30" as="geometry" />
        </mxCell>
        <mxCell id="c_XrIDyz8owDQVlm6JgZ-48" value="&lt;span style=&quot;font-size: 18px;&quot;&gt;&lt;b&gt;创建Pod物理资源&lt;/b&gt;&lt;/span&gt;" style="text;html=1;strokeColor=none;fillColor=none;align=center;verticalAlign=middle;whiteSpace=wrap;rounded=0;" vertex="1" parent="1">
          <mxGeometry x="650" y="915" width="150" height="30" as="geometry" />
        </mxCell>
        <mxCell id="c_XrIDyz8owDQVlm6JgZ-49" value="&lt;span style=&quot;font-size: 18px;&quot;&gt;&lt;b&gt;Pod消息推送&lt;/b&gt;&lt;/span&gt;" style="text;html=1;strokeColor=none;fillColor=none;align=center;verticalAlign=middle;whiteSpace=wrap;rounded=0;" vertex="1" parent="1">
          <mxGeometry x="40" y="750" width="110" height="30" as="geometry" />
        </mxCell>
      </root>
    </mxGraphModel>
  </diagram>
  <diagram id="6UQrjOJfDGM6MNktcTEP" name="第 4 页">
    <mxGraphModel dx="2375" dy="902" grid="1" gridSize="10" guides="1" tooltips="1" connect="1" arrows="1" fold="1" page="1" pageScale="1" pageWidth="827" pageHeight="1169" math="0" shadow="0">
      <root>
        <mxCell id="0" />
        <mxCell id="1" parent="0" />
        <mxCell id="NNwJcXEu5OY3l1eWvXrd-16" value="" style="rounded=0;whiteSpace=wrap;html=1;" vertex="1" parent="1">
          <mxGeometry x="416" y="270" width="530" height="380" as="geometry" />
        </mxCell>
        <mxCell id="NNwJcXEu5OY3l1eWvXrd-17" style="edgeStyle=orthogonalEdgeStyle;rounded=0;orthogonalLoop=1;jettySize=auto;html=1;exitX=1;exitY=0.5;exitDx=0;exitDy=0;entryX=0;entryY=0.5;entryDx=0;entryDy=0;" edge="1" parent="1" source="NNwJcXEu5OY3l1eWvXrd-12" target="NNwJcXEu5OY3l1eWvXrd-16">
          <mxGeometry relative="1" as="geometry" />
        </mxCell>
        <mxCell id="NNwJcXEu5OY3l1eWvXrd-12" value="" style="rounded=0;whiteSpace=wrap;html=1;" vertex="1" parent="1">
          <mxGeometry x="-290" y="270" width="530" height="380" as="geometry" />
        </mxCell>
        <mxCell id="xZvF2cwvLirYtr-alRmW-6" style="edgeStyle=orthogonalEdgeStyle;orthogonalLoop=1;jettySize=auto;html=1;exitX=1;exitY=0.5;exitDx=0;exitDy=0;entryX=0;entryY=0.5;entryDx=0;entryDy=0;curved=1;fillColor=#fff2cc;strokeColor=#d6b656;" edge="1" parent="1" source="xZvF2cwvLirYtr-alRmW-1" target="xZvF2cwvLirYtr-alRmW-2">
          <mxGeometry relative="1" as="geometry" />
        </mxCell>
        <mxCell id="xZvF2cwvLirYtr-alRmW-7" style="edgeStyle=orthogonalEdgeStyle;orthogonalLoop=1;jettySize=auto;html=1;exitX=1;exitY=0.5;exitDx=0;exitDy=0;entryX=0;entryY=0.5;entryDx=0;entryDy=0;curved=1;fillColor=#fff2cc;strokeColor=#d6b656;" edge="1" parent="1" source="xZvF2cwvLirYtr-alRmW-1" target="xZvF2cwvLirYtr-alRmW-3">
          <mxGeometry relative="1" as="geometry" />
        </mxCell>
        <mxCell id="xZvF2cwvLirYtr-alRmW-8" style="edgeStyle=orthogonalEdgeStyle;orthogonalLoop=1;jettySize=auto;html=1;exitX=1;exitY=0.5;exitDx=0;exitDy=0;entryX=0;entryY=0.5;entryDx=0;entryDy=0;curved=1;fillColor=#fff2cc;strokeColor=#d6b656;" edge="1" parent="1" source="xZvF2cwvLirYtr-alRmW-1" target="xZvF2cwvLirYtr-alRmW-4">
          <mxGeometry relative="1" as="geometry" />
        </mxCell>
        <mxCell id="xZvF2cwvLirYtr-alRmW-9" style="edgeStyle=orthogonalEdgeStyle;orthogonalLoop=1;jettySize=auto;html=1;exitX=1;exitY=0.5;exitDx=0;exitDy=0;entryX=0;entryY=0.5;entryDx=0;entryDy=0;curved=1;fillColor=#fff2cc;strokeColor=#d6b656;" edge="1" parent="1" source="xZvF2cwvLirYtr-alRmW-1" target="xZvF2cwvLirYtr-alRmW-5">
          <mxGeometry relative="1" as="geometry" />
        </mxCell>
        <mxCell id="xZvF2cwvLirYtr-alRmW-1" value="Storage" style="rounded=0;whiteSpace=wrap;html=1;fillColor=#fff2cc;strokeColor=#d6b656;" vertex="1" parent="1">
          <mxGeometry x="-190" y="430" width="120" height="60" as="geometry" />
        </mxCell>
        <mxCell id="xZvF2cwvLirYtr-alRmW-2" value="Create" style="rounded=1;whiteSpace=wrap;html=1;fillColor=#fff2cc;strokeColor=#d6b656;" vertex="1" parent="1">
          <mxGeometry x="36" y="350" width="110" height="30" as="geometry" />
        </mxCell>
        <mxCell id="xZvF2cwvLirYtr-alRmW-3" value="Watch" style="rounded=1;whiteSpace=wrap;html=1;fillColor=#fff2cc;strokeColor=#d6b656;" vertex="1" parent="1">
          <mxGeometry x="36" y="410" width="110" height="30" as="geometry" />
        </mxCell>
        <mxCell id="xZvF2cwvLirYtr-alRmW-4" value="Update" style="rounded=1;whiteSpace=wrap;html=1;fillColor=#fff2cc;strokeColor=#d6b656;" vertex="1" parent="1">
          <mxGeometry x="36" y="470" width="110" height="30" as="geometry" />
        </mxCell>
        <mxCell id="xZvF2cwvLirYtr-alRmW-5" value="List" style="rounded=1;whiteSpace=wrap;html=1;fillColor=#fff2cc;strokeColor=#d6b656;" vertex="1" parent="1">
          <mxGeometry x="36" y="540" width="110" height="30" as="geometry" />
        </mxCell>
        <mxCell id="xZvF2cwvLirYtr-alRmW-19" style="edgeStyle=orthogonalEdgeStyle;orthogonalLoop=1;jettySize=auto;html=1;exitX=1;exitY=0.5;exitDx=0;exitDy=0;entryX=0;entryY=0.5;entryDx=0;entryDy=0;curved=1;fillColor=#dae8fc;strokeColor=#6c8ebf;" edge="1" source="xZvF2cwvLirYtr-alRmW-23" target="xZvF2cwvLirYtr-alRmW-24" parent="1">
          <mxGeometry relative="1" as="geometry" />
        </mxCell>
        <mxCell id="xZvF2cwvLirYtr-alRmW-20" style="edgeStyle=orthogonalEdgeStyle;orthogonalLoop=1;jettySize=auto;html=1;exitX=1;exitY=0.5;exitDx=0;exitDy=0;entryX=0;entryY=0.5;entryDx=0;entryDy=0;curved=1;fillColor=#dae8fc;strokeColor=#6c8ebf;" edge="1" source="xZvF2cwvLirYtr-alRmW-23" target="xZvF2cwvLirYtr-alRmW-25" parent="1">
          <mxGeometry relative="1" as="geometry" />
        </mxCell>
        <mxCell id="xZvF2cwvLirYtr-alRmW-21" style="edgeStyle=orthogonalEdgeStyle;orthogonalLoop=1;jettySize=auto;html=1;exitX=1;exitY=0.5;exitDx=0;exitDy=0;entryX=0;entryY=0.5;entryDx=0;entryDy=0;curved=1;fillColor=#dae8fc;strokeColor=#6c8ebf;" edge="1" source="xZvF2cwvLirYtr-alRmW-23" target="xZvF2cwvLirYtr-alRmW-26" parent="1">
          <mxGeometry relative="1" as="geometry" />
        </mxCell>
        <mxCell id="xZvF2cwvLirYtr-alRmW-22" style="edgeStyle=orthogonalEdgeStyle;orthogonalLoop=1;jettySize=auto;html=1;exitX=1;exitY=0.5;exitDx=0;exitDy=0;entryX=0;entryY=0.5;entryDx=0;entryDy=0;curved=1;fillColor=#dae8fc;strokeColor=#6c8ebf;" edge="1" source="xZvF2cwvLirYtr-alRmW-23" target="xZvF2cwvLirYtr-alRmW-27" parent="1">
          <mxGeometry relative="1" as="geometry" />
        </mxCell>
        <mxCell id="xZvF2cwvLirYtr-alRmW-23" value="WebService Action" style="rounded=0;whiteSpace=wrap;html=1;fillColor=#dae8fc;strokeColor=#6c8ebf;" vertex="1" parent="1">
          <mxGeometry x="506" y="430" width="120" height="60" as="geometry" />
        </mxCell>
        <mxCell id="xZvF2cwvLirYtr-alRmW-24" value="POST" style="rounded=1;whiteSpace=wrap;html=1;fillColor=#dae8fc;strokeColor=#6c8ebf;" vertex="1" parent="1">
          <mxGeometry x="732" y="350" width="110" height="30" as="geometry" />
        </mxCell>
        <mxCell id="xZvF2cwvLirYtr-alRmW-25" value="GET" style="rounded=1;whiteSpace=wrap;html=1;fillColor=#dae8fc;strokeColor=#6c8ebf;" vertex="1" parent="1">
          <mxGeometry x="732" y="410" width="110" height="30" as="geometry" />
        </mxCell>
        <mxCell id="xZvF2cwvLirYtr-alRmW-26" value="PUT" style="rounded=1;whiteSpace=wrap;html=1;fillColor=#dae8fc;strokeColor=#6c8ebf;" vertex="1" parent="1">
          <mxGeometry x="732" y="470" width="110" height="30" as="geometry" />
        </mxCell>
        <mxCell id="xZvF2cwvLirYtr-alRmW-27" value="GET" style="rounded=1;whiteSpace=wrap;html=1;fillColor=#dae8fc;strokeColor=#6c8ebf;" vertex="1" parent="1">
          <mxGeometry x="732" y="540" width="110" height="30" as="geometry" />
        </mxCell>
        <mxCell id="xZvF2cwvLirYtr-alRmW-29" value="&lt;b&gt;...&lt;/b&gt;" style="text;html=1;strokeColor=none;fillColor=none;align=center;verticalAlign=middle;whiteSpace=wrap;rounded=0;" vertex="1" parent="1">
          <mxGeometry x="757" y="595" width="60" height="30" as="geometry" />
        </mxCell>
        <mxCell id="xZvF2cwvLirYtr-alRmW-30" value="&lt;b&gt;...&lt;/b&gt;" style="text;html=1;strokeColor=none;fillColor=none;align=center;verticalAlign=middle;whiteSpace=wrap;rounded=0;" vertex="1" parent="1">
          <mxGeometry x="66" y="595" width="60" height="30" as="geometry" />
        </mxCell>
        <mxCell id="NNwJcXEu5OY3l1eWvXrd-1" value="&lt;b&gt;InstallAPIs&lt;/b&gt;" style="text;html=1;strokeColor=none;fillColor=none;align=center;verticalAlign=middle;whiteSpace=wrap;rounded=0;" vertex="1" parent="1">
          <mxGeometry x="300" y="420" width="60" height="30" as="geometry" />
        </mxCell>
        <mxCell id="NNwJcXEu5OY3l1eWvXrd-13" value="&lt;b&gt;RESTStorageProvider.NewRESTStorage&lt;/b&gt;" style="text;html=1;strokeColor=none;fillColor=none;align=center;verticalAlign=middle;whiteSpace=wrap;rounded=0;" vertex="1" parent="1">
          <mxGeometry x="-60" y="280" width="60" height="30" as="geometry" />
        </mxCell>
        <mxCell id="NNwJcXEu5OY3l1eWvXrd-18" value="&lt;b&gt;registerResourceHandlers&lt;/b&gt;" style="text;html=1;strokeColor=none;fillColor=none;align=center;verticalAlign=middle;whiteSpace=wrap;rounded=0;" vertex="1" parent="1">
          <mxGeometry x="651" y="280" width="60" height="30" as="geometry" />
        </mxCell>
      </root>
    </mxGraphModel>
  </diagram>
  <diagram id="tqqwDptEiwZT6OpkvhD2" name="api-server-updates-workflow">
    <mxGraphModel dx="1548" dy="902" grid="1" gridSize="10" guides="1" tooltips="1" connect="1" arrows="1" fold="1" page="1" pageScale="1" pageWidth="827" pageHeight="1169" math="0" shadow="0">
      <root>
        <mxCell id="0" />
        <mxCell id="1" parent="0" />
        <mxCell id="5wn5Y4UyDecoJ5ZatRgr-12" value="" style="rounded=0;whiteSpace=wrap;html=1;fillColor=#f5f5f5;fontColor=#333333;strokeColor=#666666;dashed=1;" vertex="1" parent="1">
          <mxGeometry x="220" y="210" width="790" height="400" as="geometry" />
        </mxCell>
        <mxCell id="5wn5Y4UyDecoJ5ZatRgr-10" style="edgeStyle=orthogonalEdgeStyle;rounded=0;orthogonalLoop=1;jettySize=auto;html=1;exitX=1;exitY=0.5;exitDx=0;exitDy=0;entryX=0;entryY=0.5;entryDx=0;entryDy=0;" edge="1" parent="1" source="5wn5Y4UyDecoJ5ZatRgr-1" target="5wn5Y4UyDecoJ5ZatRgr-5">
          <mxGeometry relative="1" as="geometry" />
        </mxCell>
        <mxCell id="5wn5Y4UyDecoJ5ZatRgr-1" value="api-server" style="rounded=0;whiteSpace=wrap;html=1;fontFamily=Verdana;fillColor=#dae8fc;strokeColor=#6c8ebf;" vertex="1" parent="1">
          <mxGeometry x="40" y="370" width="120" height="30" as="geometry" />
        </mxCell>
        <mxCell id="5wn5Y4UyDecoJ5ZatRgr-9" value="" style="edgeStyle=orthogonalEdgeStyle;rounded=0;orthogonalLoop=1;jettySize=auto;html=1;" edge="1" parent="1" source="5wn5Y4UyDecoJ5ZatRgr-2" target="5wn5Y4UyDecoJ5ZatRgr-7">
          <mxGeometry relative="1" as="geometry" />
        </mxCell>
        <mxCell id="5wn5Y4UyDecoJ5ZatRgr-2" value="" style="rounded=0;whiteSpace=wrap;html=1;fontFamily=Verdana;fillColor=#d5e8d4;strokeColor=#82b366;" vertex="1" parent="1">
          <mxGeometry x="320" y="480" width="280" height="60" as="geometry" />
        </mxCell>
        <mxCell id="5wn5Y4UyDecoJ5ZatRgr-3" value="&lt;b&gt;updates chan&lt;/b&gt;" style="text;html=1;strokeColor=none;fillColor=none;align=center;verticalAlign=middle;whiteSpace=wrap;rounded=0;fontFamily=Verdana;" vertex="1" parent="1">
          <mxGeometry x="392" y="450" width="136" height="30" as="geometry" />
        </mxCell>
        <mxCell id="5wn5Y4UyDecoJ5ZatRgr-6" value="" style="edgeStyle=orthogonalEdgeStyle;rounded=0;orthogonalLoop=1;jettySize=auto;html=1;" edge="1" parent="1" source="5wn5Y4UyDecoJ5ZatRgr-4" target="5wn5Y4UyDecoJ5ZatRgr-5">
          <mxGeometry relative="1" as="geometry" />
        </mxCell>
        <mxCell id="5wn5Y4UyDecoJ5ZatRgr-4" value="&lt;b&gt;NewSourceApiserver&lt;/b&gt;" style="rounded=0;whiteSpace=wrap;html=1;fontFamily=Verdana;fillColor=#dae8fc;strokeColor=#6c8ebf;" vertex="1" parent="1">
          <mxGeometry x="355" y="280" width="210" height="30" as="geometry" />
        </mxCell>
        <mxCell id="5wn5Y4UyDecoJ5ZatRgr-8" value="" style="edgeStyle=orthogonalEdgeStyle;rounded=0;orthogonalLoop=1;jettySize=auto;html=1;dashed=1;" edge="1" parent="1" source="5wn5Y4UyDecoJ5ZatRgr-5" target="5wn5Y4UyDecoJ5ZatRgr-7">
          <mxGeometry relative="1" as="geometry" />
        </mxCell>
        <mxCell id="5wn5Y4UyDecoJ5ZatRgr-11" style="edgeStyle=orthogonalEdgeStyle;rounded=0;orthogonalLoop=1;jettySize=auto;html=1;exitX=0.5;exitY=1;exitDx=0;exitDy=0;entryX=0.5;entryY=0;entryDx=0;entryDy=0;" edge="1" parent="1" source="5wn5Y4UyDecoJ5ZatRgr-5" target="5wn5Y4UyDecoJ5ZatRgr-3">
          <mxGeometry relative="1" as="geometry" />
        </mxCell>
        <mxCell id="5wn5Y4UyDecoJ5ZatRgr-5" value="&lt;b&gt;newSourceApiserverFromLW&lt;/b&gt;" style="rounded=0;whiteSpace=wrap;html=1;fontFamily=Verdana;fillColor=#dae8fc;strokeColor=#6c8ebf;" vertex="1" parent="1">
          <mxGeometry x="355" y="370" width="210" height="30" as="geometry" />
        </mxCell>
        <mxCell id="5wn5Y4UyDecoJ5ZatRgr-7" value="&lt;b&gt;Run()&lt;/b&gt;" style="rounded=0;whiteSpace=wrap;html=1;fontFamily=Verdana;fillColor=#ffe6cc;strokeColor=#d79b00;" vertex="1" parent="1">
          <mxGeometry x="700" y="495" width="210" height="30" as="geometry" />
        </mxCell>
        <mxCell id="5wn5Y4UyDecoJ5ZatRgr-13" value="" style="rounded=0;whiteSpace=wrap;html=1;" vertex="1" parent="1">
          <mxGeometry x="350" y="495" width="40" height="30" as="geometry" />
        </mxCell>
        <mxCell id="5wn5Y4UyDecoJ5ZatRgr-14" value="" style="rounded=0;whiteSpace=wrap;html=1;" vertex="1" parent="1">
          <mxGeometry x="410" y="495" width="40" height="30" as="geometry" />
        </mxCell>
        <mxCell id="5wn5Y4UyDecoJ5ZatRgr-15" value="" style="rounded=0;whiteSpace=wrap;html=1;" vertex="1" parent="1">
          <mxGeometry x="470" y="495" width="40" height="30" as="geometry" />
        </mxCell>
        <mxCell id="5wn5Y4UyDecoJ5ZatRgr-16" value="" style="rounded=0;whiteSpace=wrap;html=1;" vertex="1" parent="1">
          <mxGeometry x="525" y="495" width="40" height="30" as="geometry" />
        </mxCell>
        <mxCell id="5wn5Y4UyDecoJ5ZatRgr-17" value="Kubelet" style="text;html=1;strokeColor=none;fillColor=none;align=center;verticalAlign=middle;whiteSpace=wrap;rounded=0;fontStyle=1;fontSize=18;" vertex="1" parent="1">
          <mxGeometry x="600" y="220" width="60" height="30" as="geometry" />
        </mxCell>
      </root>
    </mxGraphModel>
  </diagram>
  <diagram id="IkQKqYWj8Ika1bDowjny" name="updates-consume">
    <mxGraphModel dx="1548" dy="902" grid="1" gridSize="10" guides="1" tooltips="1" connect="1" arrows="1" fold="1" page="1" pageScale="1" pageWidth="827" pageHeight="1169" math="0" shadow="0">
      <root>
        <mxCell id="0" />
        <mxCell id="1" parent="0" />
        <mxCell id="ug2wOezLZ92xPv7qo0Rd-33" style="edgeStyle=orthogonalEdgeStyle;rounded=1;orthogonalLoop=1;jettySize=auto;html=1;exitX=1;exitY=0.5;exitDx=0;exitDy=0;entryX=0;entryY=0.5;entryDx=0;entryDy=0;" edge="1" parent="1" source="ug2wOezLZ92xPv7qo0Rd-10" target="ug2wOezLZ92xPv7qo0Rd-4">
          <mxGeometry relative="1" as="geometry" />
        </mxCell>
        <mxCell id="ug2wOezLZ92xPv7qo0Rd-10" value="" style="rounded=1;whiteSpace=wrap;html=1;" vertex="1" parent="1">
          <mxGeometry x="250" y="180" width="360" height="245" as="geometry" />
        </mxCell>
        <mxCell id="ug2wOezLZ92xPv7qo0Rd-1" value="api-server Source" style="rounded=1;whiteSpace=wrap;html=1;fillColor=#fff2cc;strokeColor=#d6b656;" vertex="1" parent="1">
          <mxGeometry x="50" y="370" width="120" height="30" as="geometry" />
        </mxCell>
        <mxCell id="ug2wOezLZ92xPv7qo0Rd-27" style="edgeStyle=orthogonalEdgeStyle;rounded=1;orthogonalLoop=1;jettySize=auto;html=1;exitX=1;exitY=0.5;exitDx=0;exitDy=0;fillColor=#d5e8d4;strokeColor=#82b366;" edge="1" parent="1" source="ug2wOezLZ92xPv7qo0Rd-2" target="ug2wOezLZ92xPv7qo0Rd-20">
          <mxGeometry relative="1" as="geometry" />
        </mxCell>
        <mxCell id="ug2wOezLZ92xPv7qo0Rd-2" value="HTTP Source" style="rounded=1;whiteSpace=wrap;html=1;fillColor=#d5e8d4;strokeColor=#82b366;" vertex="1" parent="1">
          <mxGeometry x="50" y="300" width="120" height="30" as="geometry" />
        </mxCell>
        <mxCell id="ug2wOezLZ92xPv7qo0Rd-28" style="edgeStyle=orthogonalEdgeStyle;rounded=1;orthogonalLoop=1;jettySize=auto;html=1;exitX=1;exitY=0.5;exitDx=0;exitDy=0;fillColor=#dae8fc;strokeColor=#6c8ebf;" edge="1" parent="1" source="ug2wOezLZ92xPv7qo0Rd-3" target="ug2wOezLZ92xPv7qo0Rd-25">
          <mxGeometry relative="1" as="geometry" />
        </mxCell>
        <mxCell id="ug2wOezLZ92xPv7qo0Rd-3" value="FileSource" style="rounded=1;whiteSpace=wrap;html=1;fillColor=#dae8fc;strokeColor=#6c8ebf;" vertex="1" parent="1">
          <mxGeometry x="50" y="230" width="120" height="30" as="geometry" />
        </mxCell>
        <mxCell id="ug2wOezLZ92xPv7qo0Rd-45" style="edgeStyle=orthogonalEdgeStyle;rounded=1;orthogonalLoop=1;jettySize=auto;html=1;exitX=1;exitY=0.5;exitDx=0;exitDy=0;" edge="1" parent="1" source="ug2wOezLZ92xPv7qo0Rd-4" target="ug2wOezLZ92xPv7qo0Rd-37">
          <mxGeometry relative="1" as="geometry" />
        </mxCell>
        <mxCell id="ug2wOezLZ92xPv7qo0Rd-4" value="" style="rounded=1;whiteSpace=wrap;html=1;" vertex="1" parent="1">
          <mxGeometry x="740" y="250" width="320" height="105" as="geometry" />
        </mxCell>
        <mxCell id="ug2wOezLZ92xPv7qo0Rd-5" value="&lt;b&gt;podStorage.updates&lt;/b&gt;" style="text;html=1;strokeColor=none;fillColor=none;align=center;verticalAlign=middle;whiteSpace=wrap;rounded=1;" vertex="1" parent="1">
          <mxGeometry x="870" y="250" width="60" height="30" as="geometry" />
        </mxCell>
        <mxCell id="ug2wOezLZ92xPv7qo0Rd-6" value="podUpdates" style="rounded=1;whiteSpace=wrap;html=1;fillColor=#e1d5e7;strokeColor=#9673a6;" vertex="1" parent="1">
          <mxGeometry x="770" y="300" width="80" height="30" as="geometry" />
        </mxCell>
        <mxCell id="ug2wOezLZ92xPv7qo0Rd-11" value="&lt;b&gt;mux&lt;/b&gt;" style="text;html=1;strokeColor=none;fillColor=none;align=center;verticalAlign=middle;whiteSpace=wrap;rounded=1;" vertex="1" parent="1">
          <mxGeometry x="400" y="180" width="60" height="30" as="geometry" />
        </mxCell>
        <mxCell id="ug2wOezLZ92xPv7qo0Rd-16" value="podUpdates" style="rounded=1;whiteSpace=wrap;html=1;fillColor=#e1d5e7;strokeColor=#9673a6;" vertex="1" parent="1">
          <mxGeometry x="860" y="300" width="80" height="30" as="geometry" />
        </mxCell>
        <mxCell id="ug2wOezLZ92xPv7qo0Rd-17" value="podUpdates" style="rounded=1;whiteSpace=wrap;html=1;fillColor=#e1d5e7;strokeColor=#9673a6;" vertex="1" parent="1">
          <mxGeometry x="950" y="300" width="80" height="30" as="geometry" />
        </mxCell>
        <mxCell id="ug2wOezLZ92xPv7qo0Rd-20" value="podUpdates" style="rounded=1;whiteSpace=wrap;html=1;fillColor=#d5e8d4;strokeColor=#82b366;" vertex="1" parent="1">
          <mxGeometry x="300" y="300" width="80" height="30" as="geometry" />
        </mxCell>
        <mxCell id="ug2wOezLZ92xPv7qo0Rd-21" value="podUpdates" style="rounded=1;whiteSpace=wrap;html=1;fillColor=#d5e8d4;strokeColor=#82b366;" vertex="1" parent="1">
          <mxGeometry x="390" y="300" width="80" height="30" as="geometry" />
        </mxCell>
        <mxCell id="ug2wOezLZ92xPv7qo0Rd-22" value="podUpdates" style="rounded=1;whiteSpace=wrap;html=1;fillColor=#d5e8d4;strokeColor=#82b366;" vertex="1" parent="1">
          <mxGeometry x="480" y="300" width="80" height="30" as="geometry" />
        </mxCell>
        <mxCell id="ug2wOezLZ92xPv7qo0Rd-23" value="podUpdates" style="rounded=1;whiteSpace=wrap;html=1;fillColor=#dae8fc;strokeColor=#6c8ebf;" vertex="1" parent="1">
          <mxGeometry x="480" y="230" width="80" height="30" as="geometry" />
        </mxCell>
        <mxCell id="ug2wOezLZ92xPv7qo0Rd-24" value="podUpdates" style="rounded=1;whiteSpace=wrap;html=1;fillColor=#dae8fc;strokeColor=#6c8ebf;" vertex="1" parent="1">
          <mxGeometry x="390" y="230" width="80" height="30" as="geometry" />
        </mxCell>
        <mxCell id="ug2wOezLZ92xPv7qo0Rd-25" value="podUpdates" style="rounded=1;whiteSpace=wrap;html=1;fillColor=#dae8fc;strokeColor=#6c8ebf;" vertex="1" parent="1">
          <mxGeometry x="300" y="230" width="80" height="30" as="geometry" />
        </mxCell>
        <mxCell id="ug2wOezLZ92xPv7qo0Rd-29" style="edgeStyle=orthogonalEdgeStyle;rounded=1;orthogonalLoop=1;jettySize=auto;html=1;exitX=1;exitY=0.5;exitDx=0;exitDy=0;fillColor=#fff2cc;strokeColor=#d6b656;" edge="1" target="ug2wOezLZ92xPv7qo0Rd-30" parent="1">
          <mxGeometry relative="1" as="geometry">
            <mxPoint x="170" y="385" as="sourcePoint" />
          </mxGeometry>
        </mxCell>
        <mxCell id="ug2wOezLZ92xPv7qo0Rd-30" value="podUpdates" style="rounded=1;whiteSpace=wrap;html=1;fillColor=#fff2cc;strokeColor=#d6b656;" vertex="1" parent="1">
          <mxGeometry x="300" y="370" width="80" height="30" as="geometry" />
        </mxCell>
        <mxCell id="ug2wOezLZ92xPv7qo0Rd-31" value="podUpdates" style="rounded=1;whiteSpace=wrap;html=1;fillColor=#fff2cc;strokeColor=#d6b656;" vertex="1" parent="1">
          <mxGeometry x="390" y="370" width="80" height="30" as="geometry" />
        </mxCell>
        <mxCell id="ug2wOezLZ92xPv7qo0Rd-32" value="podUpdates" style="rounded=1;whiteSpace=wrap;html=1;fillColor=#fff2cc;strokeColor=#d6b656;" vertex="1" parent="1">
          <mxGeometry x="480" y="370" width="80" height="30" as="geometry" />
        </mxCell>
        <mxCell id="ug2wOezLZ92xPv7qo0Rd-34" value="&lt;b&gt;podStorage.Merge&lt;/b&gt;" style="text;html=1;strokeColor=none;fillColor=none;align=center;verticalAlign=middle;whiteSpace=wrap;rounded=1;" vertex="1" parent="1">
          <mxGeometry x="650" y="270" width="60" height="30" as="geometry" />
        </mxCell>
        <mxCell id="ug2wOezLZ92xPv7qo0Rd-46" style="edgeStyle=orthogonalEdgeStyle;rounded=1;orthogonalLoop=1;jettySize=auto;html=1;exitX=1;exitY=0.5;exitDx=0;exitDy=0;entryX=0;entryY=0.5;entryDx=0;entryDy=0;fillColor=#ffe6cc;strokeColor=#d79b00;" edge="1" parent="1" source="ug2wOezLZ92xPv7qo0Rd-37" target="ug2wOezLZ92xPv7qo0Rd-39">
          <mxGeometry relative="1" as="geometry" />
        </mxCell>
        <mxCell id="ug2wOezLZ92xPv7qo0Rd-47" style="edgeStyle=orthogonalEdgeStyle;rounded=1;orthogonalLoop=1;jettySize=auto;html=1;exitX=1;exitY=0.5;exitDx=0;exitDy=0;entryX=0;entryY=0.5;entryDx=0;entryDy=0;fillColor=#ffe6cc;strokeColor=#d79b00;" edge="1" parent="1" source="ug2wOezLZ92xPv7qo0Rd-37" target="ug2wOezLZ92xPv7qo0Rd-40">
          <mxGeometry relative="1" as="geometry" />
        </mxCell>
        <mxCell id="ug2wOezLZ92xPv7qo0Rd-48" style="edgeStyle=orthogonalEdgeStyle;rounded=1;orthogonalLoop=1;jettySize=auto;html=1;exitX=1;exitY=0.5;exitDx=0;exitDy=0;fillColor=#ffe6cc;strokeColor=#d79b00;" edge="1" parent="1" source="ug2wOezLZ92xPv7qo0Rd-37" target="ug2wOezLZ92xPv7qo0Rd-41">
          <mxGeometry relative="1" as="geometry" />
        </mxCell>
        <mxCell id="ug2wOezLZ92xPv7qo0Rd-54" style="edgeStyle=orthogonalEdgeStyle;rounded=1;orthogonalLoop=1;jettySize=auto;html=1;exitX=1;exitY=0.5;exitDx=0;exitDy=0;entryX=0;entryY=0.5;entryDx=0;entryDy=0;fillColor=#ffe6cc;strokeColor=#d79b00;" edge="1" parent="1" source="ug2wOezLZ92xPv7qo0Rd-37" target="ug2wOezLZ92xPv7qo0Rd-42">
          <mxGeometry relative="1" as="geometry" />
        </mxCell>
        <mxCell id="ug2wOezLZ92xPv7qo0Rd-55" style="edgeStyle=orthogonalEdgeStyle;rounded=1;orthogonalLoop=1;jettySize=auto;html=1;exitX=1;exitY=0.5;exitDx=0;exitDy=0;entryX=0;entryY=0.5;entryDx=0;entryDy=0;fillColor=#ffe6cc;strokeColor=#d79b00;" edge="1" parent="1" source="ug2wOezLZ92xPv7qo0Rd-37" target="ug2wOezLZ92xPv7qo0Rd-43">
          <mxGeometry relative="1" as="geometry" />
        </mxCell>
        <mxCell id="ug2wOezLZ92xPv7qo0Rd-37" value="syncLoopInteration" style="whiteSpace=wrap;html=1;rounded=1;fillColor=#f8cecc;strokeColor=#b85450;" vertex="1" parent="1">
          <mxGeometry x="1170" y="272.5" width="120" height="60" as="geometry" />
        </mxCell>
        <mxCell id="ug2wOezLZ92xPv7qo0Rd-56" value="" style="edgeStyle=orthogonalEdgeStyle;rounded=1;orthogonalLoop=1;jettySize=auto;html=1;fillColor=#ffe6cc;strokeColor=#d79b00;" edge="1" parent="1" source="ug2wOezLZ92xPv7qo0Rd-39" target="ug2wOezLZ92xPv7qo0Rd-49">
          <mxGeometry relative="1" as="geometry" />
        </mxCell>
        <mxCell id="ug2wOezLZ92xPv7qo0Rd-39" value="kubetypes.ADD" style="whiteSpace=wrap;html=1;rounded=1;fillColor=#ffe6cc;strokeColor=#d79b00;" vertex="1" parent="1">
          <mxGeometry x="1420" y="125" width="120" height="60" as="geometry" />
        </mxCell>
        <mxCell id="ug2wOezLZ92xPv7qo0Rd-61" value="" style="edgeStyle=orthogonalEdgeStyle;rounded=1;orthogonalLoop=1;jettySize=auto;html=1;fillColor=#ffe6cc;strokeColor=#d79b00;" edge="1" parent="1" source="ug2wOezLZ92xPv7qo0Rd-40" target="ug2wOezLZ92xPv7qo0Rd-50">
          <mxGeometry relative="1" as="geometry" />
        </mxCell>
        <mxCell id="ug2wOezLZ92xPv7qo0Rd-40" value="kubetypes.UPDATE" style="whiteSpace=wrap;html=1;rounded=1;fillColor=#ffe6cc;strokeColor=#d79b00;" vertex="1" parent="1">
          <mxGeometry x="1420" y="205" width="120" height="60" as="geometry" />
        </mxCell>
        <mxCell id="ug2wOezLZ92xPv7qo0Rd-58" value="" style="edgeStyle=orthogonalEdgeStyle;rounded=1;orthogonalLoop=1;jettySize=auto;html=1;fillColor=#ffe6cc;strokeColor=#d79b00;" edge="1" parent="1" source="ug2wOezLZ92xPv7qo0Rd-41" target="ug2wOezLZ92xPv7qo0Rd-51">
          <mxGeometry relative="1" as="geometry" />
        </mxCell>
        <mxCell id="ug2wOezLZ92xPv7qo0Rd-41" value="kubetypes.REMOVE" style="whiteSpace=wrap;html=1;rounded=1;fillColor=#ffe6cc;strokeColor=#d79b00;" vertex="1" parent="1">
          <mxGeometry x="1420" y="285" width="120" height="60" as="geometry" />
        </mxCell>
        <mxCell id="ug2wOezLZ92xPv7qo0Rd-59" value="" style="edgeStyle=orthogonalEdgeStyle;rounded=1;orthogonalLoop=1;jettySize=auto;html=1;fillColor=#ffe6cc;strokeColor=#d79b00;" edge="1" parent="1" source="ug2wOezLZ92xPv7qo0Rd-42" target="ug2wOezLZ92xPv7qo0Rd-52">
          <mxGeometry relative="1" as="geometry" />
        </mxCell>
        <mxCell id="ug2wOezLZ92xPv7qo0Rd-42" value="kubetypes.RECONCILE" style="whiteSpace=wrap;html=1;rounded=1;fillColor=#ffe6cc;strokeColor=#d79b00;" vertex="1" parent="1">
          <mxGeometry x="1420" y="365" width="120" height="60" as="geometry" />
        </mxCell>
        <mxCell id="ug2wOezLZ92xPv7qo0Rd-60" value="" style="edgeStyle=orthogonalEdgeStyle;rounded=1;orthogonalLoop=1;jettySize=auto;html=1;fillColor=#ffe6cc;strokeColor=#d79b00;" edge="1" parent="1" source="ug2wOezLZ92xPv7qo0Rd-43" target="ug2wOezLZ92xPv7qo0Rd-53">
          <mxGeometry relative="1" as="geometry" />
        </mxCell>
        <mxCell id="ug2wOezLZ92xPv7qo0Rd-43" value="kubetypes.DELETE" style="whiteSpace=wrap;html=1;rounded=1;fillColor=#ffe6cc;strokeColor=#d79b00;" vertex="1" parent="1">
          <mxGeometry x="1420" y="445" width="120" height="60" as="geometry" />
        </mxCell>
        <mxCell id="ug2wOezLZ92xPv7qo0Rd-49" value="HandlePodAdditions" style="whiteSpace=wrap;html=1;rounded=1;fillColor=#ffe6cc;strokeColor=#d79b00;" vertex="1" parent="1">
          <mxGeometry x="1590" y="125" width="120" height="60" as="geometry" />
        </mxCell>
        <mxCell id="ug2wOezLZ92xPv7qo0Rd-50" value="HandlePodUpdates" style="whiteSpace=wrap;html=1;rounded=1;fillColor=#ffe6cc;strokeColor=#d79b00;" vertex="1" parent="1">
          <mxGeometry x="1590" y="205" width="120" height="60" as="geometry" />
        </mxCell>
        <mxCell id="ug2wOezLZ92xPv7qo0Rd-51" value="HandlePodRemoves" style="whiteSpace=wrap;html=1;rounded=1;fillColor=#ffe6cc;strokeColor=#d79b00;" vertex="1" parent="1">
          <mxGeometry x="1590" y="285" width="120" height="60" as="geometry" />
        </mxCell>
        <mxCell id="ug2wOezLZ92xPv7qo0Rd-52" value="HandlePodReconcile" style="whiteSpace=wrap;html=1;rounded=1;fillColor=#ffe6cc;strokeColor=#d79b00;" vertex="1" parent="1">
          <mxGeometry x="1590" y="365" width="120" height="60" as="geometry" />
        </mxCell>
        <mxCell id="ug2wOezLZ92xPv7qo0Rd-53" value="HandlePodUpdates" style="whiteSpace=wrap;html=1;rounded=1;fillColor=#ffe6cc;strokeColor=#d79b00;" vertex="1" parent="1">
          <mxGeometry x="1590" y="445" width="120" height="60" as="geometry" />
        </mxCell>
      </root>
    </mxGraphModel>
  </diagram>
  <diagram id="tJDDxhqofPaO81dfxDeY" name="第 7 页">
    <mxGraphModel dx="1548" dy="902" grid="1" gridSize="10" guides="1" tooltips="1" connect="1" arrows="1" fold="1" page="1" pageScale="1" pageWidth="827" pageHeight="1169" math="0" shadow="0">
      <root>
        <mxCell id="0" />
        <mxCell id="1" parent="0" />
        <mxCell id="X3aRLv3Z6aXIkgBH3aRF-14" style="edgeStyle=orthogonalEdgeStyle;orthogonalLoop=1;jettySize=auto;html=1;exitX=0.5;exitY=1;exitDx=0;exitDy=0;entryX=0.5;entryY=0;entryDx=0;entryDy=0;curved=1;" edge="1" parent="1" source="X3aRLv3Z6aXIkgBH3aRF-1" target="X3aRLv3Z6aXIkgBH3aRF-2">
          <mxGeometry relative="1" as="geometry" />
        </mxCell>
        <mxCell id="X3aRLv3Z6aXIkgBH3aRF-16" style="edgeStyle=orthogonalEdgeStyle;orthogonalLoop=1;jettySize=auto;html=1;exitX=0.5;exitY=1;exitDx=0;exitDy=0;entryX=0.5;entryY=0;entryDx=0;entryDy=0;curved=1;" edge="1" parent="1" source="X3aRLv3Z6aXIkgBH3aRF-1" target="X3aRLv3Z6aXIkgBH3aRF-5">
          <mxGeometry relative="1" as="geometry" />
        </mxCell>
        <mxCell id="X3aRLv3Z6aXIkgBH3aRF-1" value="scheduler" style="rounded=1;whiteSpace=wrap;html=1;" vertex="1" parent="1">
          <mxGeometry x="294" y="320" width="120" height="60" as="geometry" />
        </mxCell>
        <mxCell id="X3aRLv3Z6aXIkgBH3aRF-20" style="edgeStyle=orthogonalEdgeStyle;orthogonalLoop=1;jettySize=auto;html=1;exitX=0;exitY=0.5;exitDx=0;exitDy=0;entryX=0;entryY=0.5;entryDx=0;entryDy=0;entryPerimeter=0;curved=1;" edge="1" parent="1" source="X3aRLv3Z6aXIkgBH3aRF-2" target="X3aRLv3Z6aXIkgBH3aRF-6">
          <mxGeometry relative="1" as="geometry">
            <Array as="points">
              <mxPoint x="90" y="540" />
              <mxPoint x="90" y="200" />
            </Array>
          </mxGeometry>
        </mxCell>
        <mxCell id="X3aRLv3Z6aXIkgBH3aRF-2" value="service" style="rounded=1;whiteSpace=wrap;html=1;" vertex="1" parent="1">
          <mxGeometry x="120" y="510" width="120" height="60" as="geometry" />
        </mxCell>
        <mxCell id="X3aRLv3Z6aXIkgBH3aRF-19" style="edgeStyle=orthogonalEdgeStyle;orthogonalLoop=1;jettySize=auto;html=1;exitX=1;exitY=0.5;exitDx=0;exitDy=0;entryX=1;entryY=0.5;entryDx=0;entryDy=0;entryPerimeter=0;curved=1;" edge="1" parent="1" source="X3aRLv3Z6aXIkgBH3aRF-5" target="X3aRLv3Z6aXIkgBH3aRF-6">
          <mxGeometry relative="1" as="geometry">
            <Array as="points">
              <mxPoint x="610" y="540" />
              <mxPoint x="610" y="200" />
            </Array>
          </mxGeometry>
        </mxCell>
        <mxCell id="X3aRLv3Z6aXIkgBH3aRF-5" value="service" style="rounded=1;whiteSpace=wrap;html=1;" vertex="1" parent="1">
          <mxGeometry x="460" y="510" width="120" height="60" as="geometry" />
        </mxCell>
        <mxCell id="X3aRLv3Z6aXIkgBH3aRF-10" style="edgeStyle=orthogonalEdgeStyle;rounded=1;orthogonalLoop=1;jettySize=auto;html=1;exitX=0.5;exitY=1;exitDx=0;exitDy=0;exitPerimeter=0;" edge="1" parent="1" source="X3aRLv3Z6aXIkgBH3aRF-6" target="X3aRLv3Z6aXIkgBH3aRF-1">
          <mxGeometry relative="1" as="geometry" />
        </mxCell>
        <mxCell id="X3aRLv3Z6aXIkgBH3aRF-11" value="watch" style="edgeLabel;html=1;align=center;verticalAlign=middle;resizable=0;points=[];rounded=1;" vertex="1" connectable="0" parent="X3aRLv3Z6aXIkgBH3aRF-10">
          <mxGeometry x="-0.2582" relative="1" as="geometry">
            <mxPoint as="offset" />
          </mxGeometry>
        </mxCell>
        <mxCell id="X3aRLv3Z6aXIkgBH3aRF-6" value="ETCD" style="strokeWidth=2;html=1;shape=mxgraph.flowchart.database;whiteSpace=wrap;rounded=1;" vertex="1" parent="1">
          <mxGeometry x="309" y="180" width="90" height="40" as="geometry" />
        </mxCell>
      </root>
    </mxGraphModel>
  </diagram>
  <diagram id="EjKkI7l1dM6xciJNmt9_" name="schedule-class-diagram">
    <mxGraphModel dx="1548" dy="902" grid="1" gridSize="10" guides="1" tooltips="1" connect="1" arrows="1" fold="1" page="1" pageScale="1" pageWidth="827" pageHeight="1169" math="0" shadow="0">
      <root>
        <mxCell id="0" />
        <mxCell id="1" parent="0" />
        <mxCell id="aRv7R-Rd8GF6AO4jUESr-2" value="&lt;p style=&quot;margin:0px;margin-top:4px;text-align:center;&quot;&gt;&lt;i&gt;&amp;lt;&amp;lt;Interface&amp;gt;&amp;gt;&lt;/i&gt;&lt;br&gt;&lt;b&gt;Framework&lt;/b&gt;&lt;/p&gt;&lt;br&gt;&lt;hr size=&quot;1&quot;&gt;&lt;p style=&quot;margin:0px;margin-left:4px;&quot;&gt;+ method1(Type): Type&lt;br&gt;+ method2(Type, Type): Type&lt;/p&gt;" style="verticalAlign=top;align=left;overflow=fill;fontSize=12;fontFamily=Helvetica;html=1;whiteSpace=wrap;" vertex="1" parent="1">
          <mxGeometry x="319" y="370" width="190" height="120" as="geometry" />
        </mxCell>
        <mxCell id="aRv7R-Rd8GF6AO4jUESr-8" value="PreFilterResult" style="swimlane;fontStyle=1;align=center;verticalAlign=top;childLayout=stackLayout;horizontal=1;startSize=26;horizontalStack=0;resizeParent=1;resizeParentMax=0;resizeLast=0;collapsible=1;marginBottom=0;whiteSpace=wrap;html=1;" vertex="1" parent="1">
          <mxGeometry x="310" y="130" width="160" height="86" as="geometry" />
        </mxCell>
        <mxCell id="aRv7R-Rd8GF6AO4jUESr-9" value="+ field: type" style="text;strokeColor=none;fillColor=none;align=left;verticalAlign=top;spacingLeft=4;spacingRight=4;overflow=hidden;rotatable=0;points=[[0,0.5],[1,0.5]];portConstraint=eastwest;whiteSpace=wrap;html=1;" vertex="1" parent="aRv7R-Rd8GF6AO4jUESr-8">
          <mxGeometry y="26" width="160" height="26" as="geometry" />
        </mxCell>
        <mxCell id="aRv7R-Rd8GF6AO4jUESr-10" value="" style="line;strokeWidth=1;fillColor=none;align=left;verticalAlign=middle;spacingTop=-1;spacingLeft=3;spacingRight=3;rotatable=0;labelPosition=right;points=[];portConstraint=eastwest;strokeColor=inherit;" vertex="1" parent="aRv7R-Rd8GF6AO4jUESr-8">
          <mxGeometry y="52" width="160" height="8" as="geometry" />
        </mxCell>
        <mxCell id="aRv7R-Rd8GF6AO4jUESr-11" value="+ method(type): type" style="text;strokeColor=none;fillColor=none;align=left;verticalAlign=top;spacingLeft=4;spacingRight=4;overflow=hidden;rotatable=0;points=[[0,0.5],[1,0.5]];portConstraint=eastwest;whiteSpace=wrap;html=1;" vertex="1" parent="aRv7R-Rd8GF6AO4jUESr-8">
          <mxGeometry y="60" width="160" height="26" as="geometry" />
        </mxCell>
      </root>
    </mxGraphModel>
  </diagram>
  <diagram id="N4sLGQypHNFGyg5oryP4" name="OOM-watcher">
    <mxGraphModel dx="2389" dy="917" grid="1" gridSize="10" guides="1" tooltips="1" connect="1" arrows="1" fold="1" page="1" pageScale="1" pageWidth="827" pageHeight="1169" math="0" shadow="0">
      <root>
        <mxCell id="0" />
        <mxCell id="1" parent="0" />
        <mxCell id="rIZGIr5-2B8EI5vaqj69-21" value="" style="rounded=0;whiteSpace=wrap;html=1;dashed=1;strokeWidth=1.5;fillColor=#fff2cc;strokeColor=#d6b656;sketch=1;curveFitting=1;jiggle=2;" vertex="1" parent="1">
          <mxGeometry x="30" y="240" width="750" height="280" as="geometry" />
        </mxCell>
        <mxCell id="rIZGIr5-2B8EI5vaqj69-22" value="" style="rounded=0;whiteSpace=wrap;html=1;dashed=1;strokeWidth=1.5;fillColor=#ffe6cc;strokeColor=#d79b00;sketch=1;curveFitting=1;jiggle=2;" vertex="1" parent="1">
          <mxGeometry x="-430" y="240" width="450" height="280" as="geometry" />
        </mxCell>
        <mxCell id="rIZGIr5-2B8EI5vaqj69-23" style="edgeStyle=orthogonalEdgeStyle;rounded=0;orthogonalLoop=1;jettySize=auto;html=1;exitX=0;exitY=0.5;exitDx=0;exitDy=0;entryX=1;entryY=0.5;entryDx=0;entryDy=0;sketch=1;curveFitting=1;jiggle=2;" edge="1" parent="1" source="rIZGIr5-2B8EI5vaqj69-24" target="rIZGIr5-2B8EI5vaqj69-37">
          <mxGeometry relative="1" as="geometry" />
        </mxCell>
        <mxCell id="rIZGIr5-2B8EI5vaqj69-24" value="" style="rounded=0;whiteSpace=wrap;html=1;fillColor=#dae8fc;strokeColor=#6c8ebf;sketch=1;curveFitting=1;jiggle=2;" vertex="1" parent="1">
          <mxGeometry x="60" y="340.25" width="274" height="90" as="geometry" />
        </mxCell>
        <mxCell id="rIZGIr5-2B8EI5vaqj69-25" value="" style="whiteSpace=wrap;html=1;shape=mxgraph.basic.document;fillColor=#f5f5f5;fontColor=#333333;strokeColor=#666666;sketch=1;curveFitting=1;jiggle=2;" vertex="1" parent="1">
          <mxGeometry x="640" y="360" width="40" height="50" as="geometry" />
        </mxCell>
        <mxCell id="rIZGIr5-2B8EI5vaqj69-26" style="edgeStyle=orthogonalEdgeStyle;rounded=0;orthogonalLoop=1;jettySize=auto;html=1;exitX=1;exitY=0.5;exitDx=0;exitDy=0;sketch=1;curveFitting=1;jiggle=2;" edge="1" parent="1" source="rIZGIr5-2B8EI5vaqj69-28" target="rIZGIr5-2B8EI5vaqj69-25">
          <mxGeometry relative="1" as="geometry" />
        </mxCell>
        <mxCell id="rIZGIr5-2B8EI5vaqj69-27" style="edgeStyle=orthogonalEdgeStyle;rounded=0;orthogonalLoop=1;jettySize=auto;html=1;sketch=1;curveFitting=1;jiggle=2;" edge="1" parent="1" source="rIZGIr5-2B8EI5vaqj69-28" target="rIZGIr5-2B8EI5vaqj69-24">
          <mxGeometry relative="1" as="geometry" />
        </mxCell>
        <mxCell id="rIZGIr5-2B8EI5vaqj69-28" value="kmsg.parser" style="rounded=0;whiteSpace=wrap;html=1;fillColor=#d5e8d4;strokeColor=#82b366;sketch=1;curveFitting=1;jiggle=2;" vertex="1" parent="1">
          <mxGeometry x="450" y="367.5" width="90" height="35" as="geometry" />
        </mxCell>
        <mxCell id="rIZGIr5-2B8EI5vaqj69-29" value="/dev/kmsg" style="text;html=1;strokeColor=none;fillColor=none;align=center;verticalAlign=middle;whiteSpace=wrap;rounded=0;sketch=1;curveFitting=1;jiggle=2;" vertex="1" parent="1">
          <mxGeometry x="630" y="410" width="60" height="30" as="geometry" />
        </mxCell>
        <mxCell id="rIZGIr5-2B8EI5vaqj69-30" value="" style="rounded=0;whiteSpace=wrap;html=1;fillColor=#dae8fc;strokeColor=#6c8ebf;sketch=1;curveFitting=1;jiggle=2;" vertex="1" parent="1">
          <mxGeometry x="170" y="374" width="50" height="22.5" as="geometry" />
        </mxCell>
        <mxCell id="rIZGIr5-2B8EI5vaqj69-31" value="" style="rounded=0;whiteSpace=wrap;html=1;fillColor=#dae8fc;strokeColor=#6c8ebf;sketch=1;curveFitting=1;jiggle=2;" vertex="1" parent="1">
          <mxGeometry x="240" y="374" width="50" height="22.5" as="geometry" />
        </mxCell>
        <mxCell id="rIZGIr5-2B8EI5vaqj69-32" value="" style="rounded=0;whiteSpace=wrap;html=1;fillColor=#dae8fc;strokeColor=#6c8ebf;sketch=1;curveFitting=1;jiggle=2;" vertex="1" parent="1">
          <mxGeometry x="100" y="374" width="50" height="22.5" as="geometry" />
        </mxCell>
        <mxCell id="rIZGIr5-2B8EI5vaqj69-33" value="oomInstance" style="text;html=1;strokeColor=none;fillColor=none;align=center;verticalAlign=middle;whiteSpace=wrap;rounded=0;sketch=1;curveFitting=1;jiggle=2;" vertex="1" parent="1">
          <mxGeometry x="170" y="337.75" width="60" height="30" as="geometry" />
        </mxCell>
        <mxCell id="rIZGIr5-2B8EI5vaqj69-34" value="read" style="text;html=1;strokeColor=none;fillColor=none;align=center;verticalAlign=middle;whiteSpace=wrap;rounded=0;sketch=1;curveFitting=1;jiggle=2;" vertex="1" parent="1">
          <mxGeometry x="560" y="360" width="60" height="30" as="geometry" />
        </mxCell>
        <mxCell id="rIZGIr5-2B8EI5vaqj69-35" value="write oom msg" style="text;html=1;strokeColor=none;fillColor=none;align=center;verticalAlign=middle;whiteSpace=wrap;rounded=0;sketch=1;curveFitting=1;jiggle=2;" vertex="1" parent="1">
          <mxGeometry x="350" y="360" width="100" height="30" as="geometry" />
        </mxCell>
        <mxCell id="rIZGIr5-2B8EI5vaqj69-36" value="" style="edgeStyle=orthogonalEdgeStyle;rounded=0;sketch=1;hachureGap=4;jiggle=2;curveFitting=1;orthogonalLoop=1;jettySize=auto;html=1;fontFamily=Architects Daughter;fontSource=https%3A%2F%2Ffonts.googleapis.com%2Fcss%3Ffamily%3DArchitects%2BDaughter;fontSize=16;" edge="1" parent="1" source="rIZGIr5-2B8EI5vaqj69-37" target="rIZGIr5-2B8EI5vaqj69-40">
          <mxGeometry relative="1" as="geometry" />
        </mxCell>
        <mxCell id="rIZGIr5-2B8EI5vaqj69-37" value="recorder.Eventf&lt;br&gt;将事件传递出来" style="rounded=0;whiteSpace=wrap;html=1;fillColor=#f8cecc;strokeColor=#b85450;sketch=1;curveFitting=1;jiggle=2;" vertex="1" parent="1">
          <mxGeometry x="-100" y="367.5" width="90" height="35" as="geometry" />
        </mxCell>
        <mxCell id="rIZGIr5-2B8EI5vaqj69-38" value="&lt;b&gt;oomWatcher&lt;/b&gt;" style="text;html=1;strokeColor=none;fillColor=none;align=center;verticalAlign=middle;whiteSpace=wrap;rounded=0;sketch=1;curveFitting=1;jiggle=2;" vertex="1" parent="1">
          <mxGeometry x="350" y="240" width="60" height="30" as="geometry" />
        </mxCell>
        <mxCell id="rIZGIr5-2B8EI5vaqj69-39" value="&lt;b&gt;kubelet&lt;/b&gt;" style="text;html=1;strokeColor=none;fillColor=none;align=center;verticalAlign=middle;whiteSpace=wrap;rounded=0;sketch=1;curveFitting=1;jiggle=2;" vertex="1" parent="1">
          <mxGeometry x="-250" y="240" width="60" height="30" as="geometry" />
        </mxCell>
        <mxCell id="rIZGIr5-2B8EI5vaqj69-40" value="eventBroadcasterImpl.StartEventWatcher&lt;br&gt;对事件进行处理" style="rounded=0;whiteSpace=wrap;html=1;fillColor=#f8cecc;strokeColor=#b85450;sketch=1;curveFitting=1;jiggle=2;" vertex="1" parent="1">
          <mxGeometry x="-400" y="367.75" width="240" height="35" as="geometry" />
        </mxCell>
      </root>
    </mxGraphModel>
  </diagram>
  <diagram id="hLO2EBMyLLX-51e0hMIR" name="Pod 退出流程">
    <mxGraphModel dx="2375" dy="902" grid="1" gridSize="10" guides="1" tooltips="1" connect="1" arrows="1" fold="1" page="1" pageScale="1" pageWidth="827" pageHeight="1169" math="0" shadow="0">
      <root>
        <mxCell id="0" />
        <mxCell id="1" parent="0" />
        <mxCell id="jNt9bcyyaZHyOvYPd_wb-1" value="APIServer" style="rounded=1;whiteSpace=wrap;html=1;fillColor=#dae8fc;strokeColor=#6c8ebf;" vertex="1" parent="1">
          <mxGeometry x="230" y="360" width="120" height="30" as="geometry" />
        </mxCell>
        <mxCell id="jNt9bcyyaZHyOvYPd_wb-2" value="Endpoint 删除" style="rounded=1;whiteSpace=wrap;html=1;fillColor=#fff2cc;strokeColor=#d6b656;" vertex="1" parent="1">
          <mxGeometry x="350" y="390" width="110" height="30" as="geometry" />
        </mxCell>
        <mxCell id="jNt9bcyyaZHyOvYPd_wb-3" value="kube-proxy" style="rounded=1;whiteSpace=wrap;html=1;fillColor=#fff2cc;strokeColor=#d6b656;" vertex="1" parent="1">
          <mxGeometry x="460" y="420" width="110" height="30" as="geometry" />
        </mxCell>
        <mxCell id="jNt9bcyyaZHyOvYPd_wb-4" value="iptables 规则删除" style="rounded=1;whiteSpace=wrap;html=1;fillColor=#fff2cc;strokeColor=#d6b656;" vertex="1" parent="1">
          <mxGeometry x="570" y="450" width="110" height="30" as="geometry" />
        </mxCell>
        <mxCell id="jNt9bcyyaZHyOvYPd_wb-5" value="ingress" style="rounded=1;whiteSpace=wrap;html=1;fillColor=#fff2cc;strokeColor=#d6b656;" vertex="1" parent="1">
          <mxGeometry x="460" y="490" width="170" height="30" as="geometry" />
        </mxCell>
        <mxCell id="jNt9bcyyaZHyOvYPd_wb-6" value="coreDNS" style="rounded=1;whiteSpace=wrap;html=1;fillColor=#fff2cc;strokeColor=#d6b656;" vertex="1" parent="1">
          <mxGeometry x="460" y="530" width="120" height="30" as="geometry" />
        </mxCell>
        <mxCell id="jNt9bcyyaZHyOvYPd_wb-8" value="APIServer" style="rounded=1;whiteSpace=wrap;html=1;fillColor=#dae8fc;strokeColor=#6c8ebf;" vertex="1" parent="1">
          <mxGeometry x="230" y="600" width="120" height="30" as="geometry" />
        </mxCell>
        <mxCell id="jNt9bcyyaZHyOvYPd_wb-9" value="kubelet删除Pod" style="rounded=1;whiteSpace=wrap;html=1;fillColor=#fff2cc;strokeColor=#d6b656;" vertex="1" parent="1">
          <mxGeometry x="350" y="630" width="106" height="30" as="geometry" />
        </mxCell>
        <mxCell id="jNt9bcyyaZHyOvYPd_wb-10" value="退出应用程序" style="rounded=1;whiteSpace=wrap;html=1;fillColor=#fff2cc;strokeColor=#d6b656;" vertex="1" parent="1">
          <mxGeometry x="456" y="660" width="174" height="30" as="geometry" />
        </mxCell>
        <mxCell id="jNt9bcyyaZHyOvYPd_wb-11" value="" style="endArrow=none;dashed=1;html=1;rounded=0;" edge="1" parent="1">
          <mxGeometry width="50" height="50" relative="1" as="geometry">
            <mxPoint x="-70" y="580" as="sourcePoint" />
            <mxPoint x="810" y="580" as="targetPoint" />
          </mxGeometry>
        </mxCell>
        <mxCell id="jNt9bcyyaZHyOvYPd_wb-14" value="&lt;h1&gt;删除 Pod的访问信息&lt;/h1&gt;" style="text;html=1;strokeColor=none;fillColor=none;spacing=5;spacingTop=-20;whiteSpace=wrap;overflow=hidden;rounded=0;" vertex="1" parent="1">
          <mxGeometry x="-60" y="430" width="410" height="120" as="geometry" />
        </mxCell>
        <mxCell id="jNt9bcyyaZHyOvYPd_wb-15" value="&lt;h1&gt;应用程序退出&lt;/h1&gt;" style="text;html=1;strokeColor=none;fillColor=none;spacing=5;spacingTop=-20;whiteSpace=wrap;overflow=hidden;rounded=0;" vertex="1" parent="1">
          <mxGeometry x="-50" y="620" width="410" height="120" as="geometry" />
        </mxCell>
        <mxCell id="jNt9bcyyaZHyOvYPd_wb-16" value="" style="rounded=0;whiteSpace=wrap;html=1;opacity=50;fillColor=#f8cecc;strokeColor=#b85450;" vertex="1" parent="1">
          <mxGeometry x="630" y="280" width="80" height="490" as="geometry" />
        </mxCell>
        <mxCell id="jNt9bcyyaZHyOvYPd_wb-17" value="&lt;b&gt;访问程序出现5xx&lt;/b&gt;" style="text;html=1;strokeColor=none;fillColor=none;align=center;verticalAlign=middle;whiteSpace=wrap;rounded=0;" vertex="1" parent="1">
          <mxGeometry x="475" y="240" width="390" height="30" as="geometry" />
        </mxCell>
        <mxCell id="jNt9bcyyaZHyOvYPd_wb-18" value="" style="endArrow=classic;html=1;rounded=0;fontStyle=1" edge="1" parent="1">
          <mxGeometry width="50" height="50" relative="1" as="geometry">
            <mxPoint x="-70" y="830" as="sourcePoint" />
            <mxPoint x="860" y="830" as="targetPoint" />
          </mxGeometry>
        </mxCell>
        <mxCell id="jNt9bcyyaZHyOvYPd_wb-20" value="Text" style="text;html=1;strokeColor=none;fillColor=none;align=center;verticalAlign=middle;whiteSpace=wrap;rounded=0;" vertex="1" parent="1">
          <mxGeometry x="380" y="480" width="60" height="30" as="geometry" />
        </mxCell>
        <mxCell id="jNt9bcyyaZHyOvYPd_wb-21" value="&lt;h1&gt;时间轴&lt;/h1&gt;" style="text;html=1;strokeColor=none;fillColor=none;spacing=5;spacingTop=-20;whiteSpace=wrap;overflow=hidden;rounded=0;" vertex="1" parent="1">
          <mxGeometry x="-30" y="840" width="410" height="120" as="geometry" />
        </mxCell>
      </root>
    </mxGraphModel>
  </diagram>
  <diagram id="UrlE0gNWt9MhwxWVqo0h" name="第 11 页">
    <mxGraphModel dx="2375" dy="902" grid="1" gridSize="10" guides="1" tooltips="1" connect="1" arrows="1" fold="1" page="1" pageScale="1" pageWidth="827" pageHeight="1169" math="0" shadow="0">
      <root>
        <mxCell id="0" />
        <mxCell id="1" parent="0" />
        <mxCell id="IouqiqQHD7TK1QBK-In1-8" value="kubelet删除Pod" style="rounded=1;whiteSpace=wrap;html=1;fillColor=#f5f5f5;strokeColor=#666666;fontColor=#333333;" vertex="1" parent="1">
          <mxGeometry x="240" y="680" width="106" height="30" as="geometry" />
        </mxCell>
        <mxCell id="IouqiqQHD7TK1QBK-In1-9" value="PreStop Hook" style="rounded=1;whiteSpace=wrap;html=1;fillColor=#dae8fc;strokeColor=#6c8ebf;" vertex="1" parent="1">
          <mxGeometry x="346" y="710" width="174" height="30" as="geometry" />
        </mxCell>
        <mxCell id="IouqiqQHD7TK1QBK-In1-12" value="&lt;h1&gt;应用程序退出&lt;/h1&gt;" style="text;html=1;strokeColor=none;fillColor=none;spacing=5;spacingTop=-20;whiteSpace=wrap;overflow=hidden;rounded=0;" vertex="1" parent="1">
          <mxGeometry x="-90" y="710" width="410" height="120" as="geometry" />
        </mxCell>
        <mxCell id="IouqiqQHD7TK1QBK-In1-15" value="" style="endArrow=classic;html=1;rounded=0;fontStyle=1" edge="1" parent="1">
          <mxGeometry width="50" height="50" relative="1" as="geometry">
            <mxPoint x="-70" y="830" as="sourcePoint" />
            <mxPoint x="860" y="830" as="targetPoint" />
          </mxGeometry>
        </mxCell>
        <mxCell id="IouqiqQHD7TK1QBK-In1-17" value="&lt;h1&gt;时间轴&lt;/h1&gt;" style="text;html=1;strokeColor=none;fillColor=none;spacing=5;spacingTop=-20;whiteSpace=wrap;overflow=hidden;rounded=0;" vertex="1" parent="1">
          <mxGeometry x="-64" y="840" width="410" height="120" as="geometry" />
        </mxCell>
        <mxCell id="IouqiqQHD7TK1QBK-In1-18" value="程序优雅退出" style="rounded=1;whiteSpace=wrap;html=1;fillColor=#f8cecc;strokeColor=#b85450;" vertex="1" parent="1">
          <mxGeometry x="520" y="740" width="174" height="30" as="geometry" />
        </mxCell>
        <mxCell id="IouqiqQHD7TK1QBK-In1-19" value="APIServer" style="rounded=1;whiteSpace=wrap;html=1;fillColor=#f5f5f5;strokeColor=#666666;fontColor=#333333;" vertex="1" parent="1">
          <mxGeometry x="134" y="650" width="106" height="30" as="geometry" />
        </mxCell>
        <mxCell id="IouqiqQHD7TK1QBK-In1-20" value="APIServer" style="rounded=1;whiteSpace=wrap;html=1;fillColor=#f5f5f5;strokeColor=#666666;fontColor=#333333;" vertex="1" parent="1">
          <mxGeometry x="694" y="770" width="126" height="30" as="geometry" />
        </mxCell>
        <mxCell id="IouqiqQHD7TK1QBK-In1-21" value="" style="endArrow=none;html=1;rounded=0;exitX=0;exitY=0;exitDx=0;exitDy=0;" edge="1" parent="1">
          <mxGeometry width="50" height="50" relative="1" as="geometry">
            <mxPoint x="520" y="710" as="sourcePoint" />
            <mxPoint x="520" y="550" as="targetPoint" />
          </mxGeometry>
        </mxCell>
        <mxCell id="IouqiqQHD7TK1QBK-In1-23" value="SIGTERM" style="text;html=1;strokeColor=#314354;fillColor=#647687;align=center;verticalAlign=middle;whiteSpace=wrap;rounded=0;fontColor=#ffffff;" vertex="1" parent="1">
          <mxGeometry x="490" y="510" width="60" height="30" as="geometry" />
        </mxCell>
        <mxCell id="IouqiqQHD7TK1QBK-In1-24" value="" style="endArrow=none;html=1;rounded=0;exitX=1;exitY=0;exitDx=0;exitDy=0;" edge="1" parent="1" source="IouqiqQHD7TK1QBK-In1-18">
          <mxGeometry width="50" height="50" relative="1" as="geometry">
            <mxPoint x="694" y="730" as="sourcePoint" />
            <mxPoint x="694" y="550" as="targetPoint" />
          </mxGeometry>
        </mxCell>
        <mxCell id="IouqiqQHD7TK1QBK-In1-25" value="SIGKILL" style="text;html=1;strokeColor=#314354;fillColor=#647687;align=center;verticalAlign=middle;whiteSpace=wrap;rounded=0;fontColor=#ffffff;" vertex="1" parent="1">
          <mxGeometry x="670" y="510" width="60" height="30" as="geometry" />
        </mxCell>
        <mxCell id="IouqiqQHD7TK1QBK-In1-26" value="" style="endArrow=none;html=1;rounded=0;exitX=1;exitY=0;exitDx=0;exitDy=0;" edge="1" parent="1">
          <mxGeometry width="50" height="50" relative="1" as="geometry">
            <mxPoint x="346" y="930" as="sourcePoint" />
            <mxPoint x="346" y="740" as="targetPoint" />
          </mxGeometry>
        </mxCell>
        <mxCell id="IouqiqQHD7TK1QBK-In1-27" value="" style="endArrow=none;html=1;rounded=0;exitX=0;exitY=0;exitDx=0;exitDy=0;" edge="1" parent="1">
          <mxGeometry width="50" height="50" relative="1" as="geometry">
            <mxPoint x="693" y="930" as="sourcePoint" />
            <mxPoint x="693" y="770" as="targetPoint" />
          </mxGeometry>
        </mxCell>
        <mxCell id="IouqiqQHD7TK1QBK-In1-29" value="30s" style="text;html=1;strokeColor=#d6b656;fillColor=#fff2cc;align=center;verticalAlign=middle;whiteSpace=wrap;rounded=1;" vertex="1" parent="1">
          <mxGeometry x="350" y="910" width="340" height="20" as="geometry" />
        </mxCell>
      </root>
    </mxGraphModel>
  </diagram>
</mxfile>
